<?xml version="1.0" encoding="UTF-8"?>
<svg id="Layer_1" data-name="Layer 1" xmlns="http://www.w3.org/2000/svg" viewBox="0 0 198.18 115.75">
  <defs>
    <style>
      .cls-1 {
        fill: #ababab;
      }

      .cls-2 {
        fill: #24150e;
      }

      .cls-3 {
        fill: #cfcfce;
      }

      .cls-4 {
        fill: #fff;
      }

      .cls-5 {
        fill: #dd3626;
      }

      .cls-6 {
        fill: #ecd047;
      }
    </style>
  </defs>
  <g>
    <g>
      <g>
        <path class="cls-2" d="M99.09,49.54h-22.86v-15.25h-3.82v15.25h-22.86V3.81h3.81V0h41.92v3.81h3.81v45.72ZM83.84,41.92h7.63V11.43h-3.81v-3.81h-26.69v3.8h-3.81v30.5h7.63v-15.25h19.05v15.25ZM83.84,22.86h-19.05v-11.44h19.05v11.44Z"/>
        <path class="cls-5" d="M68.6,45.73h-15.25V11.42h3.81v-3.81h34.3v3.81h3.81v34.31h-15.25v-15.24h-11.44v15.24ZM80.04,15.24h-11.44v7.62h11.44v-7.62Z"/>
        <path class="cls-6" d="M68.6,41.93h-15.25V7.62h3.81v-3.81h34.3v3.81h3.81v34.31h-15.25v-15.25h-11.44v15.25ZM80.04,11.43h-11.44v7.62h11.44v-7.62Z"/>
        <rect class="cls-6" x="57.15" y="3.8" width="3.81" height="3.81"/>
        <rect class="cls-6" x="53.35" y="7.6" width="3.81" height="3.81"/>
      </g>
      <g>
        <path class="cls-2" d="M41.92,61.54H0V0h41.92v3.81h3.81v3.81h3.81v46.29h-3.81s0,3.81,0,3.81h-3.81v3.81ZM7.62,53.92h26.69v-3.81h3.81s0-.19,0-.19l.18-3.62h3.63s0-31.07,0-31.07h-3.81v-3.81h-3.81v-3.81H7.62v46.31ZM26.68,50.11h-11.43V11.43h15.24v3.81h3.81v31.06h-3.81v3.8h-3.81ZM22.86,42.49h0v-3.81h3.81v-15.83h-3.81v-3.81s0,23.45,0,23.45Z"/>
        <path class="cls-5" d="M3.81,57.73V7.61h34.3v3.81h3.81v3.81h3.81v34.87h-3.81v3.81h-3.81v3.81H3.81ZM26.68,15.24h-7.62v34.87h7.62v-3.81h3.81v-27.25h-3.81v-3.81Z"/>
        <path class="cls-6" d="M3.81,53.93V3.81h34.3v3.81h3.81v3.81h3.81v34.87h-3.81v3.81h-3.81v3.81H3.81ZM26.68,11.43h-7.62v34.87h7.62v-3.81h3.81V15.24h-3.81v-3.81Z"/>
        <rect class="cls-6" x="3.82" y="3.82" width="3.81" height="3.81"/>
        <rect class="cls-6" x="3.82" y="7.61" width="3.81" height="3.81"/>
      </g>
      <g>
        <path class="cls-2" d="M198.18,61.54h-22.86v-27.25h-3.82v27.25h-22.86V0h22.86v15.25h3.82V0h22.86v61.54ZM182.93,53.92h7.63V7.62h-7.63v15.25h-19.05V7.62h-7.63v46.31h7.63v-27.25h19.05v27.25Z"/>
        <path class="cls-5" d="M152.44,7.61h15.25v15.25h11.43V7.61h15.25v50.12h-15.25v-27.24h-11.43v27.24h-15.25V7.61Z"/>
        <path class="cls-6" d="M152.44,3.81h15.25v15.25h11.43V3.81h15.25v50.12h-15.25v-27.25h-11.43v27.25h-15.25V3.81Z"/>
        <rect class="cls-6" x="152.44" y="3.83" width="3.81" height="3.81"/>
        <rect class="cls-6" x="152.44" y="7.63" width="3.81" height="3.81"/>
        <rect class="cls-6" x="179.16" y="3.83" width="3.81" height="3.81"/>
        <rect class="cls-6" x="179.16" y="7.63" width="3.81" height="3.81"/>
      </g>
      <g>
        <path class="cls-2" d="M144.82,49.54h-45.73v-19.04l3.81-.02h-3.81V3.81h3.81V0h45.73v19.04h-3.81s3.81.01,3.81.01v26.67h-3.81v3.81ZM106.71,41.92h30.5v-.21s.21-3.59.21-3.59h3.61s0-11.44,0-11.44h-3.81v-3.81h-22.87v-11.43h26.68v-3.81h-30.5v3.81h-3.81v11.44h3.81v3.81h22.87v11.43h-26.68v3.81Z"/>
        <path class="cls-5" d="M106.71,30.48v-3.81h-3.81v-15.25h3.81v-3.81h38.12v7.62h-26.68v7.62h22.87v3.81h3.81v15.25h-3.81v3.81h-38.12v-7.62h26.68v-7.62h-22.87Z"/>
        <path class="cls-6" d="M106.71,26.68v-3.81h-3.81V7.62h3.81v-3.81h38.12v7.62h-26.68v7.62h22.87v3.81h3.81v15.25h-3.81v3.81h-38.12v-7.62h26.68v-7.62h-22.87Z"/>
        <rect class="cls-6" x="106.71" y="3.83" width="3.81" height="3.81"/>
        <rect class="cls-6" x="102.91" y="7.62" width="3.81" height="3.81"/>
      </g>
    </g>
    <g>
      <g>
        <path class="cls-2" d="M45.73,115.75H3.81v-3.81H0v-41.91h3.81v-3.81h41.92v3.81h3.81v41.91h-3.81v3.81ZM11.43,108.13h26.69v-3.81h3.81v-7.63h-7.63v7.62H15.25v-26.68h19.05v7.62h7.63v-7.62h-3.81v-3.81H11.43v3.8h-3.81s0,26.69,0,26.69h3.81v3.81ZM22.86,96.7h3.82v-11.45h-3.82v11.45Z"/>
        <path class="cls-5" d="M19.06,104.32h11.43v-7.62h15.25v11.43h-3.81v3.81H7.62v-3.81h-3.81v-30.5h3.81v-3.81h34.31v3.81h3.81v11.44h-15.25v-7.62h-11.43v22.87Z"/>
        <path class="cls-6" d="M19.06,100.51h11.43v-7.62h15.25v11.43h-3.81v3.81H7.62v-3.81h-3.81v-30.49h3.81v-3.81h34.31v3.81h3.81v11.43h-15.25v-7.62h-11.43v22.87Z"/>
        <rect class="cls-6" x="7.58" y="70.01" width="3.81" height="3.81"/>
        <rect class="cls-6" x="3.78" y="73.81" width="3.81" height="3.81"/>
      </g>
      <g>
        <path class="cls-2" d="M99.09,115.75h-22.86v-15.25h-3.82v15.25h-22.86v-45.72h3.81v-3.81h41.92v3.81h3.81v45.72ZM83.84,108.13h7.63v-30.5h-3.81v-3.81h-26.69v3.8h-3.81v30.5h7.63v-15.25h19.05v15.25ZM83.84,89.07h-19.05v-11.44h19.05v11.44Z"/>
        <path class="cls-5" d="M68.6,111.94h-15.25v-34.31h3.81v-3.81h34.3v3.81h3.81v34.31h-15.25v-15.24h-11.44v15.24ZM80.04,81.45h-11.44v7.62h11.44v-7.62Z"/>
        <path class="cls-6" d="M68.6,108.14h-15.25v-34.31h3.81v-3.81h34.3v3.81h3.81v34.31h-15.25v-15.25h-11.44v15.25ZM80.04,77.64h-11.44v7.62h11.44v-7.62Z"/>
        <rect class="cls-6" x="57.15" y="70.01" width="3.81" height="3.81"/>
        <rect class="cls-6" x="53.35" y="73.81" width="3.81" height="3.81"/>
      </g>
      <g>
        <path class="cls-2" d="M198.18,115.75h-22.86v-15.25h-3.82v15.25h-22.86v-49.54h22.86v15.25h3.82v-15.25h22.86v49.54ZM182.93,108.13h7.63v-34.31h-7.63v15.25h-19.05v-15.25h-7.63v34.31h7.63v-15.25h19.05v15.25Z"/>
        <path class="cls-5" d="M152.44,73.82h15.25v15.25h11.43v-15.25h15.25v38.12h-15.25v-15.24h-11.43v15.24h-15.25v-38.12Z"/>
        <path class="cls-6" d="M152.44,70.02h15.25v15.25h11.43v-15.25h15.25v38.12h-15.25v-15.25h-11.43v15.25h-15.25v-38.12Z"/>
        <rect class="cls-6" x="152.44" y="70.04" width="3.81" height="3.81"/>
        <rect class="cls-6" x="152.44" y="73.84" width="3.81" height="3.81"/>
        <rect class="cls-6" x="179.16" y="70.04" width="3.81" height="3.81"/>
        <rect class="cls-6" x="179.16" y="73.84" width="3.81" height="3.81"/>
      </g>
      <g>
        <path class="cls-2" d="M144.82,115.75h-45.73v-19.04l3.81-.02h-3.81v-26.67h3.81v-3.81h45.73v19.04h-3.81s3.81.01,3.81.01v26.67h-3.81v3.81ZM106.71,108.13h30.5v-.21s.21-3.59.21-3.59h3.61s0-11.44,0-11.44h-3.81v-3.81h-22.87v-11.43h26.68v-3.81h-30.5v3.81h-3.81v11.44h3.81v3.81h22.87v11.43h-26.68v3.81Z"/>
        <path class="cls-5" d="M106.71,96.69v-3.81h-3.81v-15.25h3.81v-3.81h38.12v7.62h-26.68v7.62h22.87v3.81h3.81v15.25h-3.81v3.81h-38.12v-7.62h26.68v-7.62h-22.87Z"/>
        <path class="cls-6" d="M106.71,92.89v-3.81h-3.81v-15.24h3.81v-3.81h38.12v7.62h-26.68v7.62h22.87v3.81h3.81v15.25h-3.81v3.81h-38.12v-7.62h26.68v-7.62h-22.87Z"/>
        <rect class="cls-6" x="106.71" y="70.04" width="3.81" height="3.81"/>
        <rect class="cls-6" x="102.91" y="73.83" width="3.81" height="3.81"/>
      </g>
    </g>
  </g>
  <g>
    <g>
      <polygon class="cls-2" points="78.33 38.85 81.79 38.85 81.79 42.31 78.33 42.31 78.33 38.85"/>
      <polygon class="cls-2" points="81.79 38.85 85.25 38.85 85.25 42.31 81.79 42.31 81.79 38.85"/>
      <polygon class="cls-2" points="85.25 38.85 88.71 38.85 88.71 42.31 85.25 42.31 85.25 38.85"/>
      <polygon class="cls-2" points="88.71 38.85 92.17 38.85 92.17 42.31 88.71 42.31 88.71 38.85"/>
      <polygon class="cls-2" points="92.17 38.85 95.63 38.85 95.63 42.31 92.17 42.31 92.17 38.85"/>
      <polygon class="cls-2" points="95.63 38.85 99.09 38.85 99.09 42.31 95.63 42.31 95.63 38.85"/>
      <polygon class="cls-2" points="99.09 38.85 102.55 38.85 102.55 42.31 99.09 42.31 99.09 38.85"/>
      <polygon class="cls-2" points="102.55 38.85 106.01 38.85 106.01 42.31 102.55 42.31 102.55 38.85"/>
      <polygon class="cls-2" points="106.01 38.85 109.47 38.85 109.47 42.31 106.01 42.31 106.01 38.85"/>
      <polygon class="cls-2" points="109.47 38.85 112.92 38.85 112.92 42.31 109.47 42.31 109.47 38.85"/>
      <polygon class="cls-2" points="112.92 38.85 116.38 38.85 116.38 42.31 112.92 42.31 112.92 38.85"/>
      <polygon class="cls-2" points="116.38 38.85 119.84 38.85 119.84 42.31 116.38 42.31 116.38 38.85"/>
      <polygon class="cls-2" points="74.88 42.31 78.33 42.31 78.33 45.77 74.88 45.77 74.88 42.31"/>
      <polygon class="cls-3" points="78.33 42.31 81.79 42.31 81.79 45.77 78.33 45.77 78.33 42.31"/>
      <polygon class="cls-3" points="81.79 42.31 85.25 42.31 85.25 45.77 81.79 45.77 81.79 42.31"/>
      <polygon class="cls-3" points="85.25 42.31 88.71 42.31 88.71 45.77 85.25 45.77 85.25 42.31"/>
      <polygon class="cls-3" points="88.71 42.31 92.17 42.31 92.17 45.77 88.71 45.77 88.71 42.31"/>
      <polygon class="cls-3" points="92.17 42.31 95.63 42.31 95.63 45.77 92.17 45.77 92.17 42.31"/>
      <polygon class="cls-3" points="95.63 42.31 99.09 42.31 99.09 45.77 95.63 45.77 95.63 42.31"/>
      <polygon class="cls-3" points="99.09 42.31 102.55 42.31 102.55 45.77 99.09 45.77 99.09 42.31"/>
      <polygon class="cls-3" points="102.55 42.31 106.01 42.31 106.01 45.77 102.55 45.77 102.55 42.31"/>
      <polygon class="cls-3" points="106.01 42.31 109.47 42.31 109.47 45.77 106.01 45.77 106.01 42.31"/>
      <polygon class="cls-3" points="109.47 42.31 112.92 42.31 112.92 45.77 109.47 45.77 109.47 42.31"/>
      <polygon class="cls-3" points="112.92 42.31 116.38 42.31 116.38 45.77 112.92 45.77 112.92 42.31"/>
      <polygon class="cls-3" points="116.38 42.31 119.84 42.31 119.84 45.77 116.38 45.77 116.38 42.31"/>
      <polygon class="cls-2" points="119.84 42.31 123.3 42.31 123.3 45.77 119.84 45.77 119.84 42.31"/>
      <polygon class="cls-2" points="71.42 45.77 74.88 45.77 74.88 49.23 71.42 49.23 71.42 45.77"/>
      <polygon class="cls-3" points="74.88 45.77 78.33 45.77 78.33 49.23 74.88 49.23 74.88 45.77"/>
      <polygon class="cls-3" points="78.33 45.77 81.79 45.77 81.79 49.23 78.33 49.23 78.33 45.77"/>
      <polygon class="cls-4" points="81.79 45.77 85.25 45.77 85.25 49.23 81.79 49.23 81.79 45.77"/>
      <polygon class="cls-4" points="85.25 45.77 88.71 45.77 88.71 49.23 85.25 49.23 85.25 45.77"/>
      <polygon class="cls-4" points="88.71 45.77 92.17 45.77 92.17 49.23 88.71 49.23 88.71 45.77"/>
      <polygon class="cls-4" points="92.17 45.77 95.63 45.77 95.63 49.23 92.17 49.23 92.17 45.77"/>
      <polygon class="cls-4" points="95.63 45.77 99.09 45.77 99.09 49.23 95.63 49.23 95.63 45.77"/>
      <polygon class="cls-4" points="99.09 45.77 102.55 45.77 102.55 49.23 99.09 49.23 99.09 45.77"/>
      <polygon class="cls-4" points="102.55 45.77 106.01 45.77 106.01 49.23 102.55 49.23 102.55 45.77"/>
      <polygon class="cls-4" points="106.01 45.77 109.47 45.77 109.47 49.23 106.01 49.23 106.01 45.77"/>
      <polygon class="cls-4" points="109.47 45.77 112.92 45.77 112.92 49.23 109.47 49.23 109.47 45.77"/>
      <polygon class="cls-4" points="112.92 45.77 116.38 45.77 116.38 49.23 112.92 49.23 112.92 45.77"/>
      <polygon class="cls-4" points="116.38 45.77 119.84 45.77 119.84 49.23 116.38 49.23 116.38 45.77"/>
      <polygon class="cls-1" points="119.84 45.77 123.3 45.77 123.3 49.23 119.84 49.23 119.84 45.77"/>
      <polygon class="cls-2" points="123.3 45.77 126.76 45.77 126.76 49.23 123.3 49.23 123.3 45.77"/>
      <polygon class="cls-2" points="71.42 49.23 74.88 49.23 74.88 52.68 71.42 52.68 71.42 49.23"/>
      <polygon class="cls-3" points="74.88 49.23 78.33 49.23 78.33 52.68 74.88 52.68 74.88 49.23"/>
      <polygon class="cls-4" points="78.33 49.23 81.79 49.23 81.79 52.68 78.33 52.68 78.33 49.23"/>
      <polygon class="cls-4" points="81.79 49.23 85.25 49.23 85.25 52.68 81.79 52.68 81.79 49.23"/>
      <polygon class="cls-4" points="85.25 49.23 88.71 49.23 88.71 52.68 85.25 52.68 85.25 49.23"/>
      <polygon class="cls-4" points="88.71 49.23 92.17 49.23 92.17 52.68 88.71 52.68 88.71 49.23"/>
      <polygon class="cls-4" points="95.63 49.23 99.09 49.23 99.09 52.68 95.63 52.68 95.63 49.23"/>
      <polygon class="cls-4" points="92.17 49.23 95.63 49.23 95.63 52.68 92.17 52.68 92.17 49.23"/>
      <polygon class="cls-4" points="99.09 49.23 102.55 49.23 102.55 52.68 99.09 52.68 99.09 49.23"/>
      <polygon class="cls-4" points="102.55 49.23 106.01 49.23 106.01 52.68 102.55 52.68 102.55 49.23"/>
      <polygon class="cls-4" points="106.01 49.23 109.47 49.23 109.47 52.68 106.01 52.68 106.01 49.23"/>
      <polygon class="cls-4" points="109.47 49.23 112.92 49.23 112.92 52.68 109.47 52.68 109.47 49.23"/>
      <polygon class="cls-4" points="112.92 49.23 116.38 49.23 116.38 52.68 112.92 52.68 112.92 49.23"/>
      <polygon class="cls-4" points="116.38 49.23 119.84 49.23 119.84 52.68 116.38 52.68 116.38 49.23"/>
      <polygon class="cls-1" points="119.84 49.23 123.3 49.23 123.3 52.68 119.84 52.68 119.84 49.23"/>
      <polygon class="cls-2" points="123.3 49.23 126.76 49.23 126.76 52.68 123.3 52.68 123.3 49.23"/>
      <polygon class="cls-2" points="71.42 52.68 74.88 52.68 74.88 56.14 71.42 56.14 71.42 52.68"/>
      <polygon class="cls-3" points="74.88 52.68 78.33 52.68 78.33 56.14 74.88 56.14 74.88 52.68"/>
      <polygon class="cls-4" points="78.33 52.68 81.79 52.68 81.79 56.14 78.33 56.14 78.33 52.68"/>
      <polygon class="cls-4" points="81.79 52.68 85.25 52.68 85.25 56.14 81.79 56.14 81.79 52.68"/>
      <polygon class="cls-4" points="85.25 52.68 88.71 52.68 88.71 56.14 85.25 56.14 85.25 52.68"/>
      <polygon class="cls-4" points="88.71 52.68 92.17 52.68 92.17 56.14 88.71 56.14 88.71 52.68"/>
      <polygon class="cls-4" points="92.17 52.68 95.63 52.68 95.63 56.14 92.17 56.14 92.17 52.68"/>
      <polygon class="cls-4" points="95.63 52.68 99.09 52.68 99.09 56.14 95.63 56.14 95.63 52.68"/>
      <polygon class="cls-4" points="99.09 52.68 102.55 52.68 102.55 56.14 99.09 56.14 99.09 52.68"/>
      <polygon class="cls-4" points="102.55 52.68 106.01 52.68 106.01 56.14 102.55 56.14 102.55 52.68"/>
      <polygon class="cls-4" points="106.01 52.68 109.47 52.68 109.47 56.14 106.01 56.14 106.01 52.68"/>
      <polygon class="cls-4" points="109.47 52.68 112.92 52.68 112.92 56.14 109.47 56.14 109.47 52.68"/>
      <polygon class="cls-4" points="112.92 52.68 116.38 52.68 116.38 56.14 112.92 56.14 112.92 52.68"/>
      <polygon class="cls-4" points="116.38 52.68 119.84 52.68 119.84 56.14 116.38 56.14 116.38 52.68"/>
      <polygon class="cls-1" points="119.84 52.68 123.3 52.68 123.3 56.14 119.84 56.14 119.84 52.68"/>
      <polygon class="cls-2" points="123.3 52.68 126.76 52.68 126.76 56.14 123.3 56.14 123.3 52.68"/>
      <polygon class="cls-2" points="71.42 56.14 74.88 56.14 74.88 59.6 71.42 59.6 71.42 56.14"/>
      <polygon class="cls-3" points="74.88 56.14 78.33 56.14 78.33 59.6 74.88 59.6 74.88 56.14"/>
      <polygon class="cls-4" points="78.33 56.14 81.79 56.14 81.79 59.6 78.33 59.6 78.33 56.14"/>
      <polygon class="cls-4" points="81.79 56.14 85.25 56.14 85.25 59.6 81.79 59.6 81.79 56.14"/>
      <polygon class="cls-4" points="85.25 56.14 88.71 56.14 88.71 59.6 85.25 59.6 85.25 56.14"/>
      <polygon class="cls-4" points="88.71 56.14 92.17 56.14 92.17 59.6 88.71 59.6 88.71 56.14"/>
      <polygon class="cls-4" points="92.17 56.14 95.63 56.14 95.63 59.6 92.17 59.6 92.17 56.14"/>
      <polygon class="cls-4" points="95.63 56.14 99.09 56.14 99.09 59.6 95.63 59.6 95.63 56.14"/>
      <polygon class="cls-4" points="99.09 56.14 102.55 56.14 102.55 59.6 99.09 59.6 99.09 56.14"/>
      <polygon class="cls-4" points="102.55 56.14 106.01 56.14 106.01 59.6 102.55 59.6 102.55 56.14"/>
      <polygon class="cls-4" points="106.01 56.14 109.47 56.14 109.47 59.6 106.01 59.6 106.01 56.14"/>
      <polygon class="cls-4" points="109.47 56.14 112.92 56.14 112.92 59.6 109.47 59.6 109.47 56.14"/>
      <polygon class="cls-4" points="112.92 56.14 116.38 56.14 116.38 59.6 112.92 59.6 112.92 56.14"/>
      <polygon class="cls-4" points="116.38 56.14 119.84 56.14 119.84 59.6 116.38 59.6 116.38 56.14"/>
      <polygon class="cls-1" points="119.84 56.14 123.3 56.14 123.3 59.6 119.84 59.6 119.84 56.14"/>
      <polygon class="cls-2" points="123.3 56.14 126.76 56.14 126.76 59.6 123.3 59.6 123.3 56.14"/>
      <polygon class="cls-2" points="71.42 59.6 74.88 59.6 74.88 63.06 71.42 63.06 71.42 59.6"/>
      <polygon class="cls-3" points="74.88 59.6 78.33 59.6 78.33 63.06 74.88 63.06 74.88 59.6"/>
      <polygon class="cls-4" points="78.33 59.6 81.79 59.6 81.79 63.06 78.33 63.06 78.33 59.6"/>
      <polygon class="cls-4" points="81.79 59.6 85.25 59.6 85.25 63.06 81.79 63.06 81.79 59.6"/>
      <polygon class="cls-4" points="85.25 59.6 88.71 59.6 88.71 63.06 85.25 63.06 85.25 59.6"/>
      <polygon class="cls-4" points="88.71 59.6 92.17 59.6 92.17 63.06 88.71 63.06 88.71 59.6"/>
      <polygon class="cls-4" points="92.17 59.6 95.63 59.6 95.63 63.06 92.17 63.06 92.17 59.6"/>
      <polygon class="cls-4" points="95.63 59.6 99.09 59.6 99.09 63.06 95.63 63.06 95.63 59.6"/>
      <polygon class="cls-4" points="99.09 59.6 102.55 59.6 102.55 63.06 99.09 63.06 99.09 59.6"/>
      <polygon class="cls-4" points="102.55 59.6 106.01 59.6 106.01 63.06 102.55 63.06 102.55 59.6"/>
      <polygon class="cls-4" points="106.01 59.6 109.47 59.6 109.47 63.06 106.01 63.06 106.01 59.6"/>
      <polygon class="cls-4" points="109.47 59.6 112.92 59.6 112.92 63.06 109.47 63.06 109.47 59.6"/>
      <polygon class="cls-4" points="112.92 59.6 116.38 59.6 116.38 63.06 112.92 63.06 112.92 59.6"/>
      <polygon class="cls-4" points="116.38 59.6 119.84 59.6 119.84 63.06 116.38 63.06 116.38 59.6"/>
      <polygon class="cls-1" points="119.84 59.6 123.3 59.6 123.3 63.06 119.84 63.06 119.84 59.6"/>
      <polygon class="cls-2" points="123.3 59.6 126.76 59.6 126.76 63.06 123.3 63.06 123.3 59.6"/>
      <polygon class="cls-2" points="71.42 63.06 74.88 63.06 74.88 66.52 71.42 66.52 71.42 63.06"/>
      <polygon class="cls-3" points="74.88 63.06 78.33 63.06 78.33 66.52 74.88 66.52 74.88 63.06"/>
      <polygon class="cls-4" points="78.33 63.06 81.79 63.06 81.79 66.52 78.33 66.52 78.33 63.06"/>
      <polygon class="cls-4" points="81.79 63.06 85.25 63.06 85.25 66.52 81.79 66.52 81.79 63.06"/>
      <polygon class="cls-4" points="85.25 63.06 88.71 63.06 88.71 66.52 85.25 66.52 85.25 63.06"/>
      <polygon class="cls-4" points="88.71 63.06 92.17 63.06 92.17 66.52 88.71 66.52 88.71 63.06"/>
      <polygon class="cls-4" points="92.17 63.06 95.63 63.06 95.63 66.52 92.17 66.52 92.17 63.06"/>
      <polygon class="cls-4" points="95.63 63.06 99.09 63.06 99.09 66.52 95.63 66.52 95.63 63.06"/>
      <polygon class="cls-4" points="99.09 63.06 102.55 63.06 102.55 66.52 99.09 66.52 99.09 63.06"/>
      <polygon class="cls-4" points="102.55 63.06 106.01 63.06 106.01 66.52 102.55 66.52 102.55 63.06"/>
      <polygon class="cls-4" points="106.01 63.06 109.47 63.06 109.47 66.52 106.01 66.52 106.01 63.06"/>
      <polygon class="cls-4" points="109.47 63.06 112.92 63.06 112.92 66.52 109.47 66.52 109.47 63.06"/>
      <polygon class="cls-4" points="112.92 63.06 116.38 63.06 116.38 66.52 112.92 66.52 112.92 63.06"/>
      <polygon class="cls-4" points="116.38 63.06 119.84 63.06 119.84 66.52 116.38 66.52 116.38 63.06"/>
      <polygon class="cls-1" points="119.84 63.06 123.3 63.06 123.3 66.52 119.84 66.52 119.84 63.06"/>
      <polygon class="cls-2" points="123.3 63.06 126.76 63.06 126.76 66.52 123.3 66.52 123.3 63.06"/>
      <polygon class="cls-2" points="71.42 66.52 74.88 66.52 74.88 69.98 71.42 69.98 71.42 66.52"/>
      <polygon class="cls-3" points="74.88 66.52 78.33 66.52 78.33 69.98 74.88 69.98 74.88 66.52"/>
      <polygon class="cls-4" points="78.33 66.52 81.79 66.52 81.79 69.98 78.33 69.98 78.33 66.52"/>
      <polygon class="cls-4" points="81.79 66.52 85.25 66.52 85.25 69.98 81.79 69.98 81.79 66.52"/>
      <polygon class="cls-4" points="85.25 66.52 88.71 66.52 88.71 69.98 85.25 69.98 85.25 66.52"/>
      <polygon class="cls-4" points="88.71 66.52 92.17 66.52 92.17 69.98 88.71 69.98 88.71 66.52"/>
      <polygon class="cls-4" points="92.17 66.52 95.63 66.52 95.63 69.98 92.17 69.98 92.17 66.52"/>
      <polygon class="cls-4" points="95.63 66.52 99.09 66.52 99.09 69.98 95.63 69.98 95.63 66.52"/>
      <polygon class="cls-4" points="99.09 66.52 102.55 66.52 102.55 69.98 99.09 69.98 99.09 66.52"/>
      <polygon class="cls-4" points="102.55 66.52 106.01 66.52 106.01 69.98 102.55 69.98 102.55 66.52"/>
      <polygon class="cls-4" points="106.01 66.52 109.47 66.52 109.47 69.98 106.01 69.98 106.01 66.52"/>
      <polygon class="cls-4" points="109.47 66.52 112.92 66.52 112.92 69.98 109.47 69.98 109.47 66.52"/>
      <polygon class="cls-4" points="112.92 66.52 116.38 66.52 116.38 69.98 112.92 69.98 112.92 66.52"/>
      <polygon class="cls-1" points="116.38 66.52 119.84 66.52 119.84 69.98 116.38 69.98 116.38 66.52"/>
      <polygon class="cls-1" points="119.84 66.52 123.3 66.52 123.3 69.98 119.84 69.98 119.84 66.52"/>
      <polygon class="cls-2" points="123.3 66.52 126.76 66.52 126.76 69.98 123.3 69.98 123.3 66.52"/>
      <polygon class="cls-2" points="74.88 69.98 78.33 69.98 78.33 73.44 74.88 73.44 74.88 69.98"/>
      <polygon class="cls-1" points="78.33 69.98 81.79 69.98 81.79 73.44 78.33 73.44 78.33 69.98"/>
      <polygon class="cls-1" points="81.79 69.98 85.25 69.98 85.25 73.44 81.79 73.44 81.79 69.98"/>
      <polygon class="cls-1" points="85.25 69.98 88.71 69.98 88.71 73.44 85.25 73.44 85.25 69.98"/>
      <polygon class="cls-1" points="88.71 69.98 92.17 69.98 92.17 73.44 88.71 73.44 88.71 69.98"/>
      <polygon class="cls-1" points="92.17 69.98 95.63 69.98 95.63 73.44 92.17 73.44 92.17 69.98"/>
      <polygon class="cls-1" points="95.63 69.98 99.09 69.98 99.09 73.44 95.63 73.44 95.63 69.98"/>
      <polygon class="cls-1" points="99.09 69.98 102.55 69.98 102.55 73.44 99.09 73.44 99.09 69.98"/>
      <polygon class="cls-1" points="102.55 69.98 106.01 69.98 106.01 73.44 102.55 73.44 102.55 69.98"/>
      <polygon class="cls-1" points="106.01 69.98 109.47 69.98 109.47 73.44 106.01 73.44 106.01 69.98"/>
      <polygon class="cls-1" points="109.47 69.98 112.92 69.98 112.92 73.44 109.47 73.44 109.47 69.98"/>
      <polygon class="cls-1" points="112.92 69.98 116.38 69.98 116.38 73.44 112.92 73.44 112.92 69.98"/>
      <polygon class="cls-1" points="116.38 69.98 119.84 69.98 119.84 73.44 116.38 73.44 116.38 69.98"/>
      <polygon class="cls-2" points="119.84 69.98 123.3 69.98 123.3 73.44 119.84 73.44 119.84 69.98"/>
      <polygon class="cls-2" points="78.33 73.44 81.79 73.44 81.79 76.9 78.33 76.9 78.33 73.44"/>
      <polygon class="cls-2" points="81.79 73.44 85.25 73.44 85.25 76.9 81.79 76.9 81.79 73.44"/>
      <polygon class="cls-2" points="85.25 73.44 88.71 73.44 88.71 76.9 85.25 76.9 85.25 73.44"/>
      <polygon class="cls-2" points="88.71 73.44 92.17 73.44 92.17 76.9 88.71 76.9 88.71 73.44"/>
      <polygon class="cls-2" points="92.17 73.44 95.63 73.44 95.63 76.9 92.17 76.9 92.17 73.44"/>
      <polygon class="cls-2" points="95.63 73.44 99.09 73.44 99.09 76.9 95.63 76.9 95.63 73.44"/>
      <polygon class="cls-2" points="99.09 73.44 102.55 73.44 102.55 76.9 99.09 76.9 99.09 73.44"/>
      <polygon class="cls-2" points="102.55 73.44 106.01 73.44 106.01 76.9 102.55 76.9 102.55 73.44"/>
      <polygon class="cls-2" points="106.01 73.44 109.47 73.44 109.47 76.9 106.01 76.9 106.01 73.44"/>
      <polygon class="cls-2" points="109.47 73.44 112.92 73.44 112.92 76.9 109.47 76.9 109.47 73.44"/>
      <polygon class="cls-2" points="112.92 73.44 116.38 73.44 116.38 76.9 112.92 76.9 112.92 73.44"/>
      <polygon class="cls-2" points="116.38 73.44 119.84 73.44 119.84 76.9 116.38 76.9 116.38 73.44"/>
    </g>
    <g>
      <path class="cls-2" d="M86.17,56.18h3.98v3.38h-3.98v6.75h-2.65v-16.89h7.95v3.38h-5.3v3.38Z"/>
      <path class="cls-2" d="M93.79,51.12h1.33v-1.69h6.63v1.69h1.33v13.51h-1.33v1.69h-6.63v-1.69h-1.33v-13.51ZM99.09,61.25h1.33v-6.75h-1.33v-1.69h-1.33v1.69h-1.33v6.75h1.33v1.69h1.33v-1.69Z"/>
      <path class="cls-2" d="M105.38,49.43h7.95v1.69h1.33v6.76h-1.33v1.69h1.33v6.75h-2.65v-5.07h-3.98v5.07h-2.65v-16.89ZM112,57.87v-5.07h-3.98v5.07h3.98Z"/>
    </g>
  </g>
</svg>