<?xml version="1.0" encoding="UTF-8"?>
<svg id="Layer_1" data-name="Layer 1" xmlns="http://www.w3.org/2000/svg" viewBox="0 0 143.3 56.45">
  <defs>
    <style>
      .cls-1 {
        fill: #24150e;
      }

      .cls-2 {
        fill: #fdd911;
      }

      .cls-3 {
        fill: #ffeea4;
      }

      .cls-4 {
        fill: #f6851f;
      }
    </style>
  </defs>
  <g>
    <rect class="cls-1" x="13.03" width="4.34" height="4.34"/>
    <rect class="cls-1" x="17.37" width="4.34" height="4.34"/>
    <rect class="cls-1" x="21.71" width="4.34" height="4.34"/>
    <rect class="cls-1" x="26.05" width="4.34" height="4.34"/>
    <rect class="cls-1" x="30.4" width="4.34" height="4.34"/>
    <rect class="cls-1" x="34.74" width="4.34" height="4.34"/>
    <rect class="cls-1" x="39.08" width="4.34" height="4.34"/>
    <rect class="cls-1" x="43.42" width="4.34" height="4.34"/>
    <rect class="cls-1" x="47.77" width="4.34" height="4.34"/>
    <rect class="cls-1" x="52.11" width="4.34" height="4.34"/>
    <rect class="cls-1" x="56.45" width="4.34" height="4.34"/>
    <rect class="cls-1" x="60.79" width="4.34" height="4.34"/>
    <rect class="cls-1" x="65.14" width="4.34" height="4.34"/>
    <rect class="cls-1" x="69.48" width="4.34" height="4.34"/>
    <rect class="cls-1" x="73.82" width="4.34" height="4.34"/>
    <rect class="cls-1" x="78.16" width="4.34" height="4.34"/>
    <rect class="cls-1" x="82.51" width="4.34" height="4.34"/>
    <rect class="cls-1" x="86.85" width="4.34" height="4.34"/>
    <rect class="cls-1" x="125.93" width="4.34" height="4.34"/>
    <rect class="cls-1" x="8.68" y="4.34" width="4.34" height="4.34"/>
    <rect class="cls-3" x="13.03" y="4.34" width="4.34" height="4.34"/>
    <rect class="cls-3" x="17.37" y="4.34" width="4.34" height="4.34"/>
    <rect class="cls-3" x="21.71" y="4.34" width="4.34" height="4.34"/>
    <rect class="cls-3" x="26.05" y="4.34" width="4.34" height="4.34"/>
    <rect class="cls-3" x="30.4" y="4.34" width="4.34" height="4.34"/>
    <rect class="cls-3" x="34.74" y="4.34" width="4.34" height="4.34"/>
    <rect class="cls-3" x="39.08" y="4.34" width="4.34" height="4.34"/>
    <rect class="cls-3" x="43.42" y="4.34" width="4.34" height="4.34"/>
    <rect class="cls-3" x="47.77" y="4.34" width="4.34" height="4.34"/>
    <rect class="cls-3" x="52.11" y="4.34" width="4.34" height="4.34"/>
    <rect class="cls-3" x="56.45" y="4.34" width="4.34" height="4.34"/>
    <rect class="cls-3" x="60.79" y="4.34" width="4.34" height="4.34"/>
    <rect class="cls-3" x="65.14" y="4.34" width="4.34" height="4.34"/>
    <rect class="cls-3" x="69.48" y="4.34" width="4.34" height="4.34"/>
    <rect class="cls-3" x="73.82" y="4.34" width="4.34" height="4.34"/>
    <rect class="cls-3" x="78.16" y="4.34" width="4.34" height="4.34"/>
    <rect class="cls-3" x="82.51" y="4.34" width="4.34" height="4.34"/>
    <rect class="cls-3" x="86.85" y="4.34" width="4.34" height="4.34"/>
    <rect class="cls-3" x="125.93" y="4.34" width="4.34" height="4.34"/>
    <rect class="cls-1" x="130.27" y="4.34" width="4.34" height="4.34"/>
    <rect class="cls-1" x="4.34" y="8.68" width="4.34" height="4.34"/>
    <rect class="cls-2" x="8.68" y="8.68" width="4.34" height="4.34"/>
    <rect class="cls-2" x="13.03" y="8.68" width="4.34" height="4.34"/>
    <rect class="cls-2" x="4.34" y="13.03" width="125.93" height="30.4"/>
    <rect class="cls-2" x="17.37" y="8.68" width="4.34" height="4.34"/>
    <rect class="cls-2" x="21.71" y="8.68" width="4.34" height="4.34"/>
    <rect class="cls-2" x="26.05" y="8.68" width="4.34" height="4.34"/>
    <rect class="cls-2" x="30.4" y="8.68" width="4.34" height="4.34"/>
    <rect class="cls-2" x="34.74" y="8.68" width="4.34" height="4.34"/>
    <rect class="cls-2" x="39.08" y="8.68" width="4.34" height="4.34"/>
    <rect class="cls-2" x="43.42" y="8.68" width="4.34" height="4.34"/>
    <rect class="cls-2" x="47.77" y="8.68" width="4.34" height="4.34"/>
    <rect class="cls-2" x="52.11" y="8.68" width="4.34" height="4.34"/>
    <rect class="cls-2" x="56.45" y="8.68" width="4.34" height="4.34"/>
    <rect class="cls-2" x="60.79" y="8.68" width="4.34" height="4.34"/>
    <rect class="cls-2" x="65.14" y="8.68" width="4.34" height="4.34"/>
    <rect class="cls-2" x="69.48" y="8.68" width="4.34" height="4.34"/>
    <rect class="cls-2" x="73.82" y="8.68" width="4.34" height="4.34"/>
    <rect class="cls-2" x="78.16" y="8.68" width="4.34" height="4.34"/>
    <rect class="cls-2" x="82.51" y="8.68" width="4.34" height="4.34"/>
    <rect class="cls-2" x="86.85" y="8.68" width="4.34" height="4.34"/>
    <rect class="cls-2" x="125.93" y="8.68" width="4.34" height="4.34"/>
    <rect class="cls-3" x="130.27" y="8.68" width="4.34" height="4.34"/>
    <rect class="cls-1" x="134.61" y="8.68" width="4.34" height="4.34"/>
    <rect class="cls-1" y="13.03" width="4.34" height="4.34"/>
    <rect class="cls-4" x="4.34" y="13.03" width="4.34" height="4.34"/>
    <rect class="cls-2" x="8.68" y="13.03" width="4.34" height="4.34"/>
    <rect class="cls-2" x="130.27" y="13.03" width="4.34" height="4.34"/>
    <rect class="cls-3" x="134.61" y="13.03" width="4.34" height="4.34"/>
    <rect class="cls-1" x="138.96" y="13.03" width="4.34" height="4.34"/>
    <rect class="cls-1" y="17.37" width="4.34" height="4.34"/>
    <rect class="cls-4" x="4.34" y="17.37" width="4.34" height="4.34"/>
    <rect class="cls-2" x="8.68" y="17.37" width="4.34" height="4.34"/>
    <rect class="cls-2" x="130.27" y="17.37" width="4.34" height="4.34"/>
    <rect class="cls-3" x="134.61" y="17.37" width="4.34" height="4.34"/>
    <rect class="cls-1" x="138.96" y="17.37" width="4.34" height="4.34"/>
    <rect class="cls-1" y="21.71" width="4.34" height="4.34"/>
    <rect class="cls-4" x="4.34" y="21.71" width="4.34" height="4.34"/>
    <rect class="cls-2" x="8.68" y="21.71" width="4.34" height="4.34"/>
    <rect class="cls-2" x="130.27" y="21.71" width="4.34" height="4.34"/>
    <rect class="cls-3" x="134.61" y="21.71" width="4.34" height="4.34"/>
    <rect class="cls-1" x="138.96" y="21.71" width="4.34" height="4.34"/>
    <rect class="cls-1" y="26.05" width="4.34" height="4.34"/>
    <rect class="cls-4" x="4.34" y="26.05" width="4.34" height="4.34"/>
    <rect class="cls-2" x="8.68" y="26.05" width="4.34" height="4.34"/>
    <rect class="cls-2" x="130.27" y="26.05" width="4.34" height="4.34"/>
    <rect class="cls-3" x="134.61" y="26.05" width="4.34" height="4.34"/>
    <rect class="cls-1" x="138.96" y="26.05" width="4.34" height="4.34"/>
    <rect class="cls-1" y="30.4" width="4.34" height="4.34"/>
    <rect class="cls-4" x="4.34" y="30.4" width="4.34" height="4.34"/>
    <rect class="cls-2" x="8.68" y="30.4" width="4.34" height="4.34"/>
    <rect class="cls-2" x="130.27" y="30.4" width="4.34" height="4.34"/>
    <rect class="cls-3" x="134.61" y="30.4" width="4.34" height="4.34"/>
    <rect class="cls-1" x="138.96" y="30.4" width="4.34" height="4.34"/>
    <rect class="cls-1" y="34.74" width="4.34" height="4.34"/>
    <rect class="cls-4" x="4.34" y="34.74" width="4.34" height="4.34"/>
    <rect class="cls-2" x="8.68" y="34.74" width="4.34" height="4.34"/>
    <rect class="cls-2" x="130.27" y="34.74" width="4.34" height="4.34"/>
    <rect class="cls-3" x="134.61" y="34.74" width="4.34" height="4.34"/>
    <rect class="cls-1" x="138.96" y="34.74" width="4.34" height="4.34"/>
    <rect class="cls-1" y="39.08" width="4.34" height="4.34"/>
    <rect class="cls-4" x="4.34" y="39.08" width="4.34" height="4.34"/>
    <rect class="cls-2" x="8.68" y="39.08" width="4.34" height="4.34"/>
    <rect class="cls-2" x="130.27" y="39.08" width="4.34" height="4.34"/>
    <rect class="cls-3" x="134.61" y="39.08" width="4.34" height="4.34"/>
    <rect class="cls-1" x="138.96" y="39.08" width="4.34" height="4.34"/>
    <rect class="cls-1" x="4.34" y="43.42" width="4.34" height="4.34"/>
    <rect class="cls-4" x="8.68" y="43.42" width="4.34" height="4.34"/>
    <rect class="cls-2" x="13.03" y="43.42" width="4.34" height="4.34"/>
    <rect class="cls-2" x="17.37" y="43.42" width="4.34" height="4.34"/>
    <rect class="cls-2" x="21.71" y="43.42" width="4.34" height="4.34"/>
    <rect class="cls-2" x="26.05" y="43.42" width="4.34" height="4.34"/>
    <rect class="cls-2" x="30.4" y="43.42" width="4.34" height="4.34"/>
    <rect class="cls-2" x="34.74" y="43.42" width="4.34" height="4.34"/>
    <rect class="cls-2" x="39.08" y="43.42" width="4.34" height="4.34"/>
    <rect class="cls-2" x="43.42" y="43.42" width="4.34" height="4.34"/>
    <rect class="cls-2" x="47.77" y="43.42" width="4.34" height="4.34"/>
    <rect class="cls-2" x="52.11" y="43.42" width="4.34" height="4.34"/>
    <rect class="cls-2" x="56.45" y="43.42" width="4.34" height="4.34"/>
    <rect class="cls-2" x="60.79" y="43.42" width="4.34" height="4.34"/>
    <rect class="cls-2" x="65.14" y="43.42" width="4.34" height="4.34"/>
    <rect class="cls-2" x="69.48" y="43.42" width="4.34" height="4.34"/>
    <rect class="cls-2" x="73.82" y="43.42" width="4.34" height="4.34"/>
    <rect class="cls-2" x="78.16" y="43.42" width="4.34" height="4.34"/>
    <rect class="cls-2" x="82.51" y="43.42" width="4.34" height="4.34"/>
    <rect class="cls-2" x="86.85" y="43.42" width="4.34" height="4.34"/>
    <rect class="cls-2" x="125.93" y="43.42" width="4.34" height="4.34"/>
    <rect class="cls-2" x="130.27" y="43.42" width="4.34" height="4.34"/>
    <rect class="cls-1" x="134.61" y="43.42" width="4.34" height="4.34"/>
    <rect class="cls-1" x="8.68" y="47.77" width="4.34" height="4.34"/>
    <rect class="cls-4" x="13.03" y="47.77" width="4.34" height="4.34"/>
    <rect class="cls-4" x="17.37" y="47.77" width="4.34" height="4.34"/>
    <rect class="cls-4" x="21.71" y="47.77" width="4.34" height="4.34"/>
    <rect class="cls-4" x="26.05" y="47.77" width="4.34" height="4.34"/>
    <rect class="cls-4" x="30.4" y="47.77" width="4.34" height="4.34"/>
    <rect class="cls-4" x="34.74" y="47.77" width="4.34" height="4.34"/>
    <rect class="cls-4" x="39.08" y="47.77" width="4.34" height="4.34"/>
    <rect class="cls-4" x="43.42" y="47.77" width="4.34" height="4.34"/>
    <rect class="cls-4" x="47.77" y="47.77" width="4.34" height="4.34"/>
    <rect class="cls-4" x="52.11" y="47.77" width="4.34" height="4.34"/>
    <rect class="cls-4" x="56.45" y="47.77" width="4.34" height="4.34"/>
    <rect class="cls-4" x="60.79" y="47.77" width="4.34" height="4.34"/>
    <rect class="cls-4" x="65.14" y="47.77" width="4.34" height="4.34"/>
    <rect class="cls-4" x="69.48" y="47.77" width="4.34" height="4.34"/>
    <rect class="cls-4" x="73.82" y="47.77" width="4.34" height="4.34"/>
    <rect class="cls-4" x="78.16" y="47.77" width="4.34" height="4.34"/>
    <rect class="cls-4" x="82.51" y="47.77" width="4.34" height="4.34"/>
    <rect class="cls-4" x="86.85" y="47.77" width="4.34" height="4.34"/>
    <rect class="cls-4" x="125.93" y="47.77" width="4.34" height="4.34"/>
    <rect class="cls-1" x="130.27" y="47.77" width="4.34" height="4.34"/>
    <rect class="cls-1" x="13.03" y="52.11" width="4.34" height="4.34"/>
    <rect class="cls-1" x="17.37" y="52.11" width="4.34" height="4.34"/>
    <rect class="cls-1" x="21.71" y="52.11" width="4.34" height="4.34"/>
    <rect class="cls-1" x="26.05" y="52.11" width="4.34" height="4.34"/>
    <rect class="cls-1" x="30.4" y="52.11" width="4.34" height="4.34"/>
    <rect class="cls-1" x="34.74" y="52.11" width="4.34" height="4.34"/>
    <rect class="cls-1" x="39.08" y="52.11" width="4.34" height="4.34"/>
    <rect class="cls-1" x="43.42" y="52.11" width="4.34" height="4.34"/>
    <rect class="cls-1" x="47.77" y="52.11" width="4.34" height="4.34"/>
    <rect class="cls-1" x="52.11" y="52.11" width="4.34" height="4.34"/>
    <rect class="cls-1" x="56.45" y="52.11" width="4.34" height="4.34"/>
    <rect class="cls-1" x="60.79" y="52.11" width="4.34" height="4.34"/>
    <rect class="cls-1" x="65.14" y="52.11" width="4.34" height="4.34"/>
    <rect class="cls-1" x="69.48" y="52.11" width="4.34" height="4.34"/>
    <rect class="cls-1" x="73.82" y="52.11" width="4.34" height="4.34"/>
    <rect class="cls-1" x="78.16" y="52.11" width="4.34" height="4.34"/>
    <rect class="cls-1" x="82.51" y="52.11" width="4.34" height="4.34"/>
    <rect class="cls-1" x="86.85" y="52.11" width="4.34" height="4.34"/>
    <rect class="cls-1" x="91.19" width="4.34" height="4.34"/>
    <rect class="cls-1" x="95.53" width="4.34" height="4.34"/>
    <rect class="cls-1" x="99.88" width="4.34" height="4.34"/>
    <rect class="cls-1" x="104.22" width="4.34" height="4.34"/>
    <rect class="cls-1" x="108.56" width="4.34" height="4.34"/>
    <rect class="cls-3" x="91.19" y="4.34" width="4.34" height="4.34"/>
    <rect class="cls-3" x="95.53" y="4.34" width="4.34" height="4.34"/>
    <rect class="cls-3" x="99.88" y="4.34" width="4.34" height="4.34"/>
    <rect class="cls-3" x="104.22" y="4.34" width="4.34" height="4.34"/>
    <rect class="cls-3" x="108.56" y="4.34" width="4.34" height="4.34"/>
    <rect class="cls-2" x="91.19" y="8.68" width="4.34" height="4.34"/>
    <rect class="cls-2" x="95.53" y="8.68" width="4.34" height="4.34"/>
    <rect class="cls-2" x="99.88" y="8.68" width="4.34" height="4.34"/>
    <rect class="cls-2" x="104.22" y="8.68" width="4.34" height="4.34"/>
    <rect class="cls-2" x="108.56" y="8.68" width="4.34" height="4.34"/>
    <rect class="cls-2" x="91.19" y="43.42" width="4.34" height="4.34"/>
    <rect class="cls-2" x="95.53" y="43.42" width="4.34" height="4.34"/>
    <rect class="cls-2" x="99.88" y="43.42" width="4.34" height="4.34"/>
    <rect class="cls-2" x="104.22" y="43.42" width="4.34" height="4.34"/>
    <rect class="cls-2" x="108.56" y="43.42" width="4.34" height="4.34"/>
    <rect class="cls-4" x="91.19" y="47.77" width="4.34" height="4.34"/>
    <rect class="cls-4" x="95.53" y="47.77" width="4.34" height="4.34"/>
    <rect class="cls-4" x="99.88" y="47.77" width="4.34" height="4.34"/>
    <rect class="cls-4" x="104.22" y="47.77" width="4.34" height="4.34"/>
    <rect class="cls-4" x="108.56" y="47.77" width="4.34" height="4.34"/>
    <rect class="cls-1" x="91.19" y="52.11" width="4.34" height="4.34"/>
    <rect class="cls-1" x="95.53" y="52.11" width="4.34" height="4.34"/>
    <rect class="cls-1" x="99.88" y="52.11" width="4.34" height="4.34"/>
    <rect class="cls-1" x="104.22" y="52.11" width="4.34" height="4.34"/>
    <rect class="cls-1" x="108.56" y="52.11" width="4.34" height="4.34"/>
    <rect class="cls-1" x="112.9" width="4.34" height="4.34"/>
    <rect class="cls-3" x="112.9" y="4.34" width="4.34" height="4.34"/>
    <rect class="cls-2" x="112.9" y="8.68" width="4.34" height="4.34"/>
    <rect class="cls-2" x="112.9" y="43.42" width="4.34" height="4.34"/>
    <rect class="cls-4" x="112.9" y="47.77" width="4.34" height="4.34"/>
    <rect class="cls-1" x="112.9" y="52.11" width="4.34" height="4.34"/>
    <rect class="cls-1" x="117.24" width="4.34" height="4.34"/>
    <rect class="cls-1" x="121.59" width="4.34" height="4.34"/>
    <rect class="cls-3" x="117.24" y="4.34" width="4.34" height="4.34"/>
    <rect class="cls-3" x="121.59" y="4.34" width="4.34" height="4.34"/>
    <rect class="cls-2" x="117.24" y="8.68" width="4.34" height="4.34"/>
    <rect class="cls-2" x="121.59" y="8.68" width="4.34" height="4.34"/>
    <rect class="cls-2" x="117.24" y="43.42" width="4.34" height="4.34"/>
    <rect class="cls-2" x="121.59" y="43.42" width="4.34" height="4.34"/>
    <rect class="cls-4" x="117.24" y="47.77" width="4.34" height="4.34"/>
    <rect class="cls-4" x="121.59" y="47.77" width="4.34" height="4.34"/>
    <rect class="cls-1" x="117.24" y="52.11" width="4.34" height="4.34"/>
    <rect class="cls-1" x="121.59" y="52.11" width="4.34" height="4.34"/>
    <rect class="cls-1" x="125.93" y="52.11" width="4.34" height="4.34"/>
  </g>
  <g>
    <path class="cls-1" d="M18.38,18.81h8.23v1.75h1.37v8.73h-1.37v1.75h-5.48v5.24h-2.74v-17.47ZM25.23,22.31h-4.11v5.24h4.11v-5.24Z"/>
    <path class="cls-1" d="M33.11,32.79h4.11v3.49h-6.85v-17.47h2.74v13.98Z"/>
    <path class="cls-1" d="M39.62,24.05h1.37v-1.75h1.37v-1.75h1.37v-1.75h1.37v1.75h1.37v1.75h1.37v1.75h1.37v12.23h-2.74v-3.49h-4.11v3.49h-2.74v-12.23ZM42.36,29.3h4.11v-3.49h-1.37v-1.75h-1.37v1.75h-1.37v3.49Z"/>
    <path class="cls-1" d="M55.72,31.04h-1.37v-1.75h-1.37v-1.75h-1.37v-8.73h2.74v6.99h1.37v1.75h2.74v-1.75h1.37v-6.99h2.74v8.73h-1.37v1.75h-1.37v1.75h-1.37v5.24h-2.74v-5.24Z"/>
    <path class="cls-1" d="M71.48,24.05h1.37v-1.75h1.37v-1.75h1.37v-1.75h1.37v1.75h1.37v1.75h1.37v1.75h1.37v12.23h-2.74v-3.49h-4.11v3.49h-2.74v-12.23ZM74.22,29.3h4.11v-3.49h-1.37v-1.75h-1.37v1.75h-1.37v3.49Z"/>
    <path class="cls-1" d="M87.58,25.8h5.48v8.73h-1.37v1.75h-6.85v-1.75h-1.37v-13.98h1.37v-1.75h6.85v1.75h1.37v3.49h-2.74v-1.75h-2.74v1.75h-1.37v6.99h1.37v1.75h2.74v-3.49h-2.74v-3.49Z"/>
    <path class="cls-1" d="M95.46,24.05h1.37v-1.75h1.37v-1.75h1.37v-1.75h1.37v1.75h1.37v1.75h1.37v1.75h1.37v12.23h-2.74v-3.49h-4.11v3.49h-2.74v-12.23ZM98.2,29.3h4.11v-3.49h-1.37v-1.75h-1.37v1.75h-1.37v3.49Z"/>
    <path class="cls-1" d="M107.45,18.81h2.74v17.47h-2.74v-17.47Z"/>
    <path class="cls-1" d="M118.07,31.04h-1.37v-3.49h-1.37v8.73h-2.74v-17.47h4.11v3.49h1.37v3.49h1.37v3.49h1.37v-10.48h2.74v17.47h-4.11v-1.75h-1.37v-3.49Z"/>
  </g>
</svg>