<?xml version="1.0" encoding="UTF-8"?>
<svg id="Layer_1" data-name="Layer 1" xmlns="http://www.w3.org/2000/svg" viewBox="0 0 169.35 56.45">
  <defs>
    <style>
      .cls-1 {
        fill: #24150e;
      }

      .cls-2 {
        fill: #d4e169;
      }

      .cls-3 {
        fill: #5fbb46;
      }

      .cls-4 {
        fill: #17a049;
      }
    </style>
  </defs>
  <g>
    <rect class="cls-1" x="13.03" width="4.34" height="4.34"/>
    <rect class="cls-1" x="17.37" width="4.34" height="4.34"/>
    <rect class="cls-1" x="21.71" width="4.34" height="4.34"/>
    <rect class="cls-1" x="26.05" width="4.34" height="4.34"/>
    <rect class="cls-1" x="30.4" width="4.34" height="4.34"/>
    <rect class="cls-1" x="34.74" width="4.34" height="4.34"/>
    <rect class="cls-1" x="39.08" width="4.34" height="4.34"/>
    <rect class="cls-1" x="43.42" width="4.34" height="4.34"/>
    <rect class="cls-1" x="47.77" width="4.34" height="4.34"/>
    <rect class="cls-1" x="52.11" width="4.34" height="4.34"/>
    <rect class="cls-1" x="56.45" width="4.34" height="4.34"/>
    <rect class="cls-1" x="60.79" width="4.34" height="4.34"/>
    <rect class="cls-1" x="65.14" width="4.34" height="4.34"/>
    <rect class="cls-1" x="69.48" width="4.34" height="4.34"/>
    <rect class="cls-1" x="73.82" width="4.34" height="4.34"/>
    <rect class="cls-1" x="78.16" width="4.34" height="4.34"/>
    <rect class="cls-1" x="82.51" width="4.34" height="4.34"/>
    <rect class="cls-1" x="86.85" width="4.34" height="4.34"/>
    <rect class="cls-1" x="151.98" width="4.34" height="4.34"/>
    <rect class="cls-1" x="8.68" y="4.34" width="4.34" height="4.34"/>
    <rect class="cls-2" x="13.03" y="4.34" width="4.34" height="4.34"/>
    <rect class="cls-2" x="17.37" y="4.34" width="4.34" height="4.34"/>
    <rect class="cls-2" x="21.71" y="4.34" width="4.34" height="4.34"/>
    <rect class="cls-2" x="26.05" y="4.34" width="4.34" height="4.34"/>
    <rect class="cls-2" x="30.4" y="4.34" width="4.34" height="4.34"/>
    <rect class="cls-2" x="34.74" y="4.34" width="4.34" height="4.34"/>
    <rect class="cls-2" x="39.08" y="4.34" width="4.34" height="4.34"/>
    <rect class="cls-2" x="43.42" y="4.34" width="4.34" height="4.34"/>
    <rect class="cls-2" x="47.77" y="4.34" width="4.34" height="4.34"/>
    <rect class="cls-2" x="52.11" y="4.34" width="4.34" height="4.34"/>
    <rect class="cls-2" x="56.45" y="4.34" width="4.34" height="4.34"/>
    <rect class="cls-2" x="60.79" y="4.34" width="4.34" height="4.34"/>
    <rect class="cls-2" x="65.14" y="4.34" width="4.34" height="4.34"/>
    <rect class="cls-2" x="69.48" y="4.34" width="4.34" height="4.34"/>
    <rect class="cls-2" x="73.82" y="4.34" width="4.34" height="4.34"/>
    <rect class="cls-2" x="78.16" y="4.34" width="4.34" height="4.34"/>
    <rect class="cls-2" x="82.51" y="4.34" width="4.34" height="4.34"/>
    <rect class="cls-2" x="86.85" y="4.34" width="4.34" height="4.34"/>
    <rect class="cls-2" x="151.98" y="4.34" width="4.34" height="4.34"/>
    <rect class="cls-1" x="156.33" y="4.34" width="4.34" height="4.34"/>
    <rect class="cls-1" x="4.34" y="8.68" width="4.34" height="4.34"/>
    <rect class="cls-3" x="8.68" y="8.68" width="4.34" height="4.34"/>
    <rect class="cls-3" x="13.03" y="8.68" width="4.34" height="4.34"/>
    <rect class="cls-3" x="4.34" y="13.03" width="160.67" height="30.4"/>
    <rect class="cls-3" x="17.37" y="8.68" width="4.34" height="4.34"/>
    <rect class="cls-3" x="21.71" y="8.68" width="4.34" height="4.34"/>
    <rect class="cls-3" x="26.05" y="8.68" width="4.34" height="4.34"/>
    <rect class="cls-3" x="30.4" y="8.68" width="4.34" height="4.34"/>
    <rect class="cls-3" x="34.74" y="8.68" width="4.34" height="4.34"/>
    <rect class="cls-3" x="39.08" y="8.68" width="4.34" height="4.34"/>
    <rect class="cls-3" x="43.42" y="8.68" width="4.34" height="4.34"/>
    <rect class="cls-3" x="47.77" y="8.68" width="4.34" height="4.34"/>
    <rect class="cls-3" x="52.11" y="8.68" width="4.34" height="4.34"/>
    <rect class="cls-3" x="56.45" y="8.68" width="4.34" height="4.34"/>
    <rect class="cls-3" x="60.79" y="8.68" width="4.34" height="4.34"/>
    <rect class="cls-3" x="65.14" y="8.68" width="4.34" height="4.34"/>
    <rect class="cls-3" x="69.48" y="8.68" width="4.34" height="4.34"/>
    <rect class="cls-3" x="73.82" y="8.68" width="4.34" height="4.34"/>
    <rect class="cls-3" x="78.16" y="8.68" width="4.34" height="4.34"/>
    <rect class="cls-3" x="82.51" y="8.68" width="4.34" height="4.34"/>
    <rect class="cls-3" x="86.85" y="8.68" width="4.34" height="4.34"/>
    <rect class="cls-3" x="151.98" y="8.68" width="4.34" height="4.34"/>
    <rect class="cls-2" x="156.33" y="8.68" width="4.34" height="4.34"/>
    <rect class="cls-1" x="160.67" y="8.68" width="4.34" height="4.34"/>
    <rect class="cls-1" y="13.03" width="4.34" height="4.34"/>
    <rect class="cls-4" x="4.34" y="13.03" width="4.34" height="4.34"/>
    <rect class="cls-3" x="8.68" y="13.03" width="4.34" height="4.34"/>
    <rect class="cls-3" x="156.33" y="13.03" width="4.34" height="4.34"/>
    <rect class="cls-2" x="160.67" y="13.03" width="4.34" height="4.34"/>
    <rect class="cls-1" x="165.01" y="13.03" width="4.34" height="4.34"/>
    <rect class="cls-1" y="17.37" width="4.34" height="4.34"/>
    <rect class="cls-4" x="4.34" y="17.37" width="4.34" height="4.34"/>
    <rect class="cls-3" x="8.68" y="17.37" width="4.34" height="4.34"/>
    <rect class="cls-3" x="156.33" y="17.37" width="4.34" height="4.34"/>
    <rect class="cls-2" x="160.67" y="17.37" width="4.34" height="4.34"/>
    <rect class="cls-1" x="165.01" y="17.37" width="4.34" height="4.34"/>
    <rect class="cls-1" y="21.71" width="4.34" height="4.34"/>
    <rect class="cls-4" x="4.34" y="21.71" width="4.34" height="4.34"/>
    <rect class="cls-3" x="8.68" y="21.71" width="4.34" height="4.34"/>
    <rect class="cls-3" x="156.33" y="21.71" width="4.34" height="4.34"/>
    <rect class="cls-2" x="160.67" y="21.71" width="4.34" height="4.34"/>
    <rect class="cls-1" x="165.01" y="21.71" width="4.34" height="4.34"/>
    <rect class="cls-1" y="26.05" width="4.34" height="4.34"/>
    <rect class="cls-4" x="4.34" y="26.05" width="4.34" height="4.34"/>
    <rect class="cls-3" x="8.68" y="26.05" width="4.34" height="4.34"/>
    <rect class="cls-3" x="156.33" y="26.05" width="4.34" height="4.34"/>
    <rect class="cls-2" x="160.67" y="26.05" width="4.34" height="4.34"/>
    <rect class="cls-1" x="165.01" y="26.05" width="4.34" height="4.34"/>
    <rect class="cls-1" y="30.4" width="4.34" height="4.34"/>
    <rect class="cls-4" x="4.34" y="30.4" width="4.34" height="4.34"/>
    <rect class="cls-3" x="8.68" y="30.4" width="4.34" height="4.34"/>
    <rect class="cls-3" x="156.33" y="30.4" width="4.34" height="4.34"/>
    <rect class="cls-2" x="160.67" y="30.4" width="4.34" height="4.34"/>
    <rect class="cls-1" x="165.01" y="30.4" width="4.34" height="4.34"/>
    <rect class="cls-1" y="34.74" width="4.34" height="4.34"/>
    <rect class="cls-4" x="4.34" y="34.74" width="4.34" height="4.34"/>
    <rect class="cls-3" x="8.68" y="34.74" width="4.34" height="4.34"/>
    <rect class="cls-3" x="156.33" y="34.74" width="4.34" height="4.34"/>
    <rect class="cls-2" x="160.67" y="34.74" width="4.34" height="4.34"/>
    <rect class="cls-1" x="165.01" y="34.74" width="4.34" height="4.34"/>
    <rect class="cls-1" y="39.08" width="4.34" height="4.34"/>
    <rect class="cls-4" x="4.34" y="39.08" width="4.34" height="4.34"/>
    <rect class="cls-3" x="8.68" y="39.08" width="4.34" height="4.34"/>
    <rect class="cls-3" x="156.33" y="39.08" width="4.34" height="4.34"/>
    <rect class="cls-2" x="160.67" y="39.08" width="4.34" height="4.34"/>
    <rect class="cls-1" x="165.01" y="39.08" width="4.34" height="4.34"/>
    <rect class="cls-1" x="4.34" y="43.42" width="4.34" height="4.34"/>
    <rect class="cls-4" x="8.68" y="43.42" width="4.34" height="4.34"/>
    <rect class="cls-3" x="13.03" y="43.42" width="4.34" height="4.34"/>
    <rect class="cls-3" x="17.37" y="43.42" width="4.34" height="4.34"/>
    <rect class="cls-3" x="21.71" y="43.42" width="4.34" height="4.34"/>
    <rect class="cls-3" x="26.05" y="43.42" width="4.34" height="4.34"/>
    <rect class="cls-3" x="30.4" y="43.42" width="4.34" height="4.34"/>
    <rect class="cls-3" x="34.74" y="43.42" width="4.34" height="4.34"/>
    <rect class="cls-3" x="39.08" y="43.42" width="4.34" height="4.34"/>
    <rect class="cls-3" x="43.42" y="43.42" width="4.34" height="4.34"/>
    <rect class="cls-3" x="47.77" y="43.42" width="4.34" height="4.34"/>
    <rect class="cls-3" x="52.11" y="43.42" width="4.34" height="4.34"/>
    <rect class="cls-3" x="56.45" y="43.42" width="4.34" height="4.34"/>
    <rect class="cls-3" x="60.79" y="43.42" width="4.34" height="4.34"/>
    <rect class="cls-3" x="65.14" y="43.42" width="4.34" height="4.34"/>
    <rect class="cls-3" x="69.48" y="43.42" width="4.34" height="4.34"/>
    <rect class="cls-3" x="73.82" y="43.42" width="4.34" height="4.34"/>
    <rect class="cls-3" x="78.16" y="43.42" width="4.34" height="4.34"/>
    <rect class="cls-3" x="82.51" y="43.42" width="4.34" height="4.34"/>
    <rect class="cls-3" x="86.85" y="43.42" width="4.34" height="4.34"/>
    <rect class="cls-3" x="151.98" y="43.42" width="4.34" height="4.34"/>
    <rect class="cls-3" x="156.33" y="43.42" width="4.34" height="4.34"/>
    <rect class="cls-1" x="160.67" y="43.42" width="4.34" height="4.34"/>
    <rect class="cls-1" x="8.68" y="47.77" width="4.34" height="4.34"/>
    <rect class="cls-4" x="13.03" y="47.77" width="4.34" height="4.34"/>
    <rect class="cls-4" x="17.37" y="47.77" width="4.34" height="4.34"/>
    <rect class="cls-4" x="21.71" y="47.77" width="4.34" height="4.34"/>
    <rect class="cls-4" x="26.05" y="47.77" width="4.34" height="4.34"/>
    <rect class="cls-4" x="30.4" y="47.77" width="4.34" height="4.34"/>
    <rect class="cls-4" x="34.74" y="47.77" width="4.34" height="4.34"/>
    <rect class="cls-4" x="39.08" y="47.77" width="4.34" height="4.34"/>
    <rect class="cls-4" x="43.42" y="47.77" width="4.34" height="4.34"/>
    <rect class="cls-4" x="47.77" y="47.77" width="4.34" height="4.34"/>
    <rect class="cls-4" x="52.11" y="47.77" width="4.34" height="4.34"/>
    <rect class="cls-4" x="56.45" y="47.77" width="4.34" height="4.34"/>
    <rect class="cls-4" x="60.79" y="47.77" width="4.34" height="4.34"/>
    <rect class="cls-4" x="65.14" y="47.77" width="4.34" height="4.34"/>
    <rect class="cls-4" x="69.48" y="47.77" width="4.34" height="4.34"/>
    <rect class="cls-4" x="73.82" y="47.77" width="4.34" height="4.34"/>
    <rect class="cls-4" x="78.16" y="47.77" width="4.34" height="4.34"/>
    <rect class="cls-4" x="82.51" y="47.77" width="4.34" height="4.34"/>
    <rect class="cls-4" x="86.85" y="47.77" width="4.34" height="4.34"/>
    <rect class="cls-4" x="151.98" y="47.77" width="4.34" height="4.34"/>
    <rect class="cls-1" x="156.33" y="47.77" width="4.34" height="4.34"/>
    <rect class="cls-1" x="13.03" y="52.11" width="4.34" height="4.34"/>
    <rect class="cls-1" x="17.37" y="52.11" width="4.34" height="4.34"/>
    <rect class="cls-1" x="21.71" y="52.11" width="4.34" height="4.34"/>
    <rect class="cls-1" x="26.05" y="52.11" width="4.34" height="4.34"/>
    <rect class="cls-1" x="30.4" y="52.11" width="4.34" height="4.34"/>
    <rect class="cls-1" x="34.74" y="52.11" width="4.34" height="4.34"/>
    <rect class="cls-1" x="39.08" y="52.11" width="4.34" height="4.34"/>
    <rect class="cls-1" x="43.42" y="52.11" width="4.34" height="4.34"/>
    <rect class="cls-1" x="47.77" y="52.11" width="4.34" height="4.34"/>
    <rect class="cls-1" x="52.11" y="52.11" width="4.34" height="4.34"/>
    <rect class="cls-1" x="56.45" y="52.11" width="4.34" height="4.34"/>
    <rect class="cls-1" x="60.79" y="52.11" width="4.34" height="4.34"/>
    <rect class="cls-1" x="65.14" y="52.11" width="4.34" height="4.34"/>
    <rect class="cls-1" x="69.48" y="52.11" width="4.34" height="4.34"/>
    <rect class="cls-1" x="73.82" y="52.11" width="4.34" height="4.34"/>
    <rect class="cls-1" x="78.16" y="52.11" width="4.34" height="4.34"/>
    <rect class="cls-1" x="82.51" y="52.11" width="4.34" height="4.34"/>
    <rect class="cls-1" x="86.85" y="52.11" width="4.34" height="4.34"/>
    <rect class="cls-1" x="91.19" width="4.34" height="4.34"/>
    <rect class="cls-1" x="95.53" width="4.34" height="4.34"/>
    <rect class="cls-1" x="99.88" width="4.34" height="4.34"/>
    <rect class="cls-1" x="104.22" width="4.34" height="4.34"/>
    <rect class="cls-2" x="91.19" y="4.34" width="4.34" height="4.34"/>
    <rect class="cls-2" x="95.53" y="4.34" width="4.34" height="4.34"/>
    <rect class="cls-2" x="99.88" y="4.34" width="4.34" height="4.34"/>
    <rect class="cls-2" x="104.22" y="4.34" width="4.34" height="4.34"/>
    <rect class="cls-3" x="91.19" y="8.68" width="4.34" height="4.34"/>
    <rect class="cls-3" x="95.53" y="8.68" width="4.34" height="4.34"/>
    <rect class="cls-3" x="99.88" y="8.68" width="4.34" height="4.34"/>
    <rect class="cls-3" x="104.22" y="8.68" width="4.34" height="4.34"/>
    <rect class="cls-3" x="91.19" y="43.42" width="4.34" height="4.34"/>
    <rect class="cls-3" x="95.53" y="43.42" width="4.34" height="4.34"/>
    <rect class="cls-3" x="99.88" y="43.42" width="4.34" height="4.34"/>
    <rect class="cls-3" x="104.22" y="43.42" width="4.34" height="4.34"/>
    <rect class="cls-4" x="91.19" y="47.77" width="4.34" height="4.34"/>
    <rect class="cls-4" x="95.53" y="47.77" width="4.34" height="4.34"/>
    <rect class="cls-4" x="99.88" y="47.77" width="4.34" height="4.34"/>
    <rect class="cls-4" x="104.22" y="47.77" width="4.34" height="4.34"/>
    <rect class="cls-1" x="91.19" y="52.11" width="4.34" height="4.34"/>
    <rect class="cls-1" x="95.53" y="52.11" width="4.34" height="4.34"/>
    <rect class="cls-1" x="99.88" y="52.11" width="4.34" height="4.34"/>
    <rect class="cls-1" x="104.22" y="52.11" width="4.34" height="4.34"/>
    <rect class="cls-1" x="108.56" width="4.34" height="4.34"/>
    <rect class="cls-1" x="112.9" width="4.34" height="4.34"/>
    <rect class="cls-1" x="117.24" width="4.34" height="4.34"/>
    <rect class="cls-1" x="121.59" width="4.34" height="4.34"/>
    <rect class="cls-2" x="108.56" y="4.34" width="4.34" height="4.34"/>
    <rect class="cls-2" x="112.9" y="4.34" width="4.34" height="4.34"/>
    <rect class="cls-2" x="117.24" y="4.34" width="4.34" height="4.34"/>
    <rect class="cls-2" x="121.59" y="4.34" width="4.34" height="4.34"/>
    <rect class="cls-3" x="108.56" y="8.68" width="4.34" height="4.34"/>
    <rect class="cls-3" x="112.9" y="8.68" width="4.34" height="4.34"/>
    <rect class="cls-3" x="117.24" y="8.68" width="4.34" height="4.34"/>
    <rect class="cls-3" x="121.59" y="8.68" width="4.34" height="4.34"/>
    <rect class="cls-3" x="108.56" y="43.42" width="4.34" height="4.34"/>
    <rect class="cls-3" x="112.9" y="43.42" width="4.34" height="4.34"/>
    <rect class="cls-3" x="117.24" y="43.42" width="4.34" height="4.34"/>
    <rect class="cls-3" x="121.59" y="43.42" width="4.34" height="4.34"/>
    <rect class="cls-4" x="108.56" y="47.77" width="4.34" height="4.34"/>
    <rect class="cls-4" x="112.9" y="47.77" width="4.34" height="4.34"/>
    <rect class="cls-4" x="117.24" y="47.77" width="4.34" height="4.34"/>
    <rect class="cls-4" x="121.59" y="47.77" width="4.34" height="4.34"/>
    <rect class="cls-1" x="108.56" y="52.11" width="4.34" height="4.34"/>
    <rect class="cls-1" x="112.9" y="52.11" width="4.34" height="4.34"/>
    <rect class="cls-1" x="117.24" y="52.11" width="4.34" height="4.34"/>
    <rect class="cls-1" x="121.59" y="52.11" width="4.34" height="4.34"/>
    <rect class="cls-1" x="125.93" width="4.34" height="4.34"/>
    <rect class="cls-1" x="130.27" width="4.34" height="4.34"/>
    <rect class="cls-1" x="134.61" width="4.34" height="4.34"/>
    <rect class="cls-1" x="138.96" width="4.34" height="4.34"/>
    <rect class="cls-2" x="125.93" y="4.34" width="4.34" height="4.34"/>
    <rect class="cls-2" x="130.27" y="4.34" width="4.34" height="4.34"/>
    <rect class="cls-2" x="134.61" y="4.34" width="4.34" height="4.34"/>
    <rect class="cls-2" x="138.96" y="4.34" width="4.34" height="4.34"/>
    <rect class="cls-3" x="125.93" y="8.68" width="4.34" height="4.34"/>
    <rect class="cls-3" x="130.27" y="8.68" width="4.34" height="4.34"/>
    <rect class="cls-3" x="134.61" y="8.68" width="4.34" height="4.34"/>
    <rect class="cls-3" x="138.96" y="8.68" width="4.34" height="4.34"/>
    <rect class="cls-3" x="125.93" y="43.42" width="4.34" height="4.34"/>
    <rect class="cls-3" x="130.27" y="43.42" width="4.34" height="4.34"/>
    <rect class="cls-3" x="134.61" y="43.42" width="4.34" height="4.34"/>
    <rect class="cls-3" x="138.96" y="43.42" width="4.34" height="4.34"/>
    <rect class="cls-4" x="125.93" y="47.77" width="4.34" height="4.34"/>
    <rect class="cls-4" x="130.27" y="47.77" width="4.34" height="4.34"/>
    <rect class="cls-4" x="134.61" y="47.77" width="4.34" height="4.34"/>
    <rect class="cls-4" x="138.96" y="47.77" width="4.34" height="4.34"/>
    <rect class="cls-1" x="125.93" y="52.11" width="4.34" height="4.34"/>
    <rect class="cls-1" x="130.27" y="52.11" width="4.34" height="4.34"/>
    <rect class="cls-1" x="134.61" y="52.11" width="4.34" height="4.34"/>
    <rect class="cls-1" x="138.96" y="52.11" width="4.34" height="4.34"/>
    <rect class="cls-1" x="143.3" width="4.34" height="4.34"/>
    <rect class="cls-1" x="147.64" width="4.34" height="4.34"/>
    <rect class="cls-2" x="143.3" y="4.34" width="4.34" height="4.34"/>
    <rect class="cls-2" x="147.64" y="4.34" width="4.34" height="4.34"/>
    <rect class="cls-3" x="143.3" y="8.68" width="4.34" height="4.34"/>
    <rect class="cls-3" x="147.64" y="8.68" width="4.34" height="4.34"/>
    <rect class="cls-3" x="143.3" y="43.42" width="4.34" height="4.34"/>
    <rect class="cls-3" x="147.64" y="43.42" width="4.34" height="4.34"/>
    <rect class="cls-4" x="143.3" y="47.77" width="4.34" height="4.34"/>
    <rect class="cls-4" x="147.64" y="47.77" width="4.34" height="4.34"/>
    <rect class="cls-1" x="143.3" y="52.11" width="4.34" height="4.34"/>
    <rect class="cls-1" x="147.64" y="52.11" width="4.34" height="4.34"/>
    <rect class="cls-1" x="151.98" y="52.11" width="4.34" height="4.34"/>
  </g>
  <g>
    <path class="cls-1" d="M27.81,21.53h-3.5v-4.46h10.5v4.46h-3.5v17.85h-3.5v-17.85Z"/>
    <path class="cls-1" d="M37.87,17.07h10.5v2.23h1.75v8.92h-1.75v2.23h1.75v8.92h-3.5v-6.69h-5.25v6.69h-3.5v-22.31ZM46.62,28.23v-6.69h-5.25v6.69h5.25Z"/>
    <path class="cls-1" d="M58.43,32.69h-1.75v-2.23h-1.75v-2.23h-1.75v-11.15h3.5v8.92h1.75v2.23h3.5v-2.23h1.75v-8.92h3.5v11.15h-1.75v2.23h-1.75v2.23h-1.75v6.69h-3.5v-6.69Z"/>
    <path class="cls-1" d="M78.55,23.76h1.75v-2.23h1.75v-2.23h1.75v-2.23h1.75v2.23h1.75v2.23h1.75v2.23h1.75v15.62h-3.5v-4.46h-5.25v4.46h-3.5v-15.62ZM82.05,30.46h5.25v-4.46h-1.75v-2.23h-1.75v2.23h-1.75v4.46Z"/>
    <path class="cls-1" d="M99.11,26h7v11.15h-1.75v2.23h-8.75v-2.23h-1.75v-17.85h1.75v-2.23h8.75v2.23h1.75v4.46h-3.5v-2.23h-3.5v2.23h-1.75v8.92h1.75v2.23h3.5v-4.46h-3.5v-4.46Z"/>
    <path class="cls-1" d="M109.17,23.76h1.75v-2.23h1.75v-2.23h1.75v-2.23h1.75v2.23h1.75v2.23h1.75v2.23h1.75v15.62h-3.5v-4.46h-5.25v4.46h-3.5v-15.62ZM112.67,30.46h5.25v-4.46h-1.75v-2.23h-1.75v2.23h-1.75v4.46Z"/>
    <path class="cls-1" d="M124.48,17.07h3.5v22.31h-3.5v-22.31Z"/>
    <path class="cls-1" d="M138.04,32.69h-1.75v-4.46h-1.75v11.15h-3.5v-22.31h5.25v4.46h1.75v4.46h1.75v4.46h1.75v-13.38h3.5v22.31h-5.25v-2.23h-1.75v-4.46Z"/>
  </g>
</svg>