<svg width="170" height="57" viewBox="0 0 170 57" fill="none" xmlns="http://www.w3.org/2000/svg">
<g clip-path="url(#clip0_782_2854)">
<path d="M17.3693 0H13.0293V4.34H17.3693V0Z" fill="#24150E"/>
<path d="M21.7091 0H17.3691V4.34H21.7091V0Z" fill="#24150E"/>
<path d="M26.0509 0H21.7109V4.34H26.0509V0Z" fill="#24150E"/>
<path d="M30.3908 0H26.0508V4.34H30.3908V0Z" fill="#24150E"/>
<path d="M34.7404 0H30.4004V4.34H34.7404V0Z" fill="#24150E"/>
<path d="M39.0802 0H34.7402V4.34H39.0802V0Z" fill="#24150E"/>
<path d="M43.4201 0H39.0801V4.34H43.4201V0Z" fill="#24150E"/>
<path d="M47.7599 0H43.4199V4.34H47.7599V0Z" fill="#24150E"/>
<path d="M52.1095 0H47.7695V4.34H52.1095V0Z" fill="#24150E"/>
<path d="M56.4494 0H52.1094V4.34H56.4494V0Z" fill="#24150E"/>
<path d="M60.7892 0H56.4492V4.34H60.7892V0Z" fill="#24150E"/>
<path d="M65.1291 0H60.7891V4.34H65.1291V0Z" fill="#24150E"/>
<path d="M69.4806 0H65.1406V4.34H69.4806V0Z" fill="#24150E"/>
<path d="M73.8205 0H69.4805V4.34H73.8205V0Z" fill="#24150E"/>
<path d="M78.1603 0H73.8203V4.34H78.1603V0Z" fill="#24150E"/>
<path d="M82.5002 0H78.1602V4.34H82.5002V0Z" fill="#24150E"/>
<path d="M86.8498 0H82.5098V4.34H86.8498V0Z" fill="#24150E"/>
<path d="M91.1896 0H86.8496V4.34H91.1896V0Z" fill="#24150E"/>
<path d="M156.32 0H151.98V4.34H156.32V0Z" fill="#24150E"/>
<path d="M13.0197 4.33984H8.67969V8.67984H13.0197V4.33984Z" fill="#24150E"/>
<path d="M17.3693 4.33984H13.0293V8.67984H17.3693V4.33984Z" fill="#D4E169"/>
<path d="M21.7091 4.33984H17.3691V8.67984H21.7091V4.33984Z" fill="#D4E169"/>
<path d="M26.0509 4.33984H21.7109V8.67984H26.0509V4.33984Z" fill="#D4E169"/>
<path d="M30.3908 4.33984H26.0508V8.67984H30.3908V4.33984Z" fill="#D4E169"/>
<path d="M34.7404 4.33984H30.4004V8.67984H34.7404V4.33984Z" fill="#D4E169"/>
<path d="M39.0802 4.33984H34.7402V8.67984H39.0802V4.33984Z" fill="#D4E169"/>
<path d="M43.4201 4.33984H39.0801V8.67984H43.4201V4.33984Z" fill="#D4E169"/>
<path d="M47.7599 4.33984H43.4199V8.67984H47.7599V4.33984Z" fill="#D4E169"/>
<path d="M52.1095 4.33984H47.7695V8.67984H52.1095V4.33984Z" fill="#D4E169"/>
<path d="M56.4494 4.33984H52.1094V8.67984H56.4494V4.33984Z" fill="#D4E169"/>
<path d="M60.7892 4.33984H56.4492V8.67984H60.7892V4.33984Z" fill="#D4E169"/>
<path d="M65.1291 4.33984H60.7891V8.67984H65.1291V4.33984Z" fill="#D4E169"/>
<path d="M69.4806 4.33984H65.1406V8.67984H69.4806V4.33984Z" fill="#D4E169"/>
<path d="M73.8205 4.33984H69.4805V8.67984H73.8205V4.33984Z" fill="#D4E169"/>
<path d="M78.1603 4.33984H73.8203V8.67984H78.1603V4.33984Z" fill="#D4E169"/>
<path d="M82.5002 4.33984H78.1602V8.67984H82.5002V4.33984Z" fill="#D4E169"/>
<path d="M86.8498 4.33984H82.5098V8.67984H86.8498V4.33984Z" fill="#D4E169"/>
<path d="M91.1896 4.33984H86.8496V8.67984H91.1896V4.33984Z" fill="#D4E169"/>
<path d="M156.32 4.33984H151.98V8.67984H156.32V4.33984Z" fill="#D4E169"/>
<path d="M160.67 4.33984H156.33V8.67984H160.67V4.33984Z" fill="#24150E"/>
<path d="M8.67984 8.68018H4.33984V13.0202H8.67984V8.68018Z" fill="#24150E"/>
<path d="M13.0197 8.68018H8.67969V13.0202H13.0197V8.68018Z" fill="#17A049"/>
<path d="M17.3693 8.68018H13.0293V13.0202H17.3693V8.68018Z" fill="#17A049"/>
<path d="M165.01 13.0298H4.33984V43.4298H165.01V13.0298Z" fill="#17A049"/>
<path d="M21.7091 8.68018H17.3691V13.0202H21.7091V8.68018Z" fill="#17A049"/>
<path d="M26.0509 8.68018H21.7109V13.0202H26.0509V8.68018Z" fill="#17A049"/>
<path d="M30.3908 8.68018H26.0508V13.0202H30.3908V8.68018Z" fill="#17A049"/>
<path d="M34.7404 8.68018H30.4004V13.0202H34.7404V8.68018Z" fill="#17A049"/>
<path d="M39.0802 8.68018H34.7402V13.0202H39.0802V8.68018Z" fill="#17A049"/>
<path d="M43.4201 8.68018H39.0801V13.0202H43.4201V8.68018Z" fill="#17A049"/>
<path d="M47.7599 8.68018H43.4199V13.0202H47.7599V8.68018Z" fill="#17A049"/>
<path d="M52.1095 8.68018H47.7695V13.0202H52.1095V8.68018Z" fill="#17A049"/>
<path d="M56.4494 8.68018H52.1094V13.0202H56.4494V8.68018Z" fill="#17A049"/>
<path d="M60.7892 8.68018H56.4492V13.0202H60.7892V8.68018Z" fill="#17A049"/>
<path d="M65.1291 8.68018H60.7891V13.0202H65.1291V8.68018Z" fill="#17A049"/>
<path d="M69.4806 8.68018H65.1406V13.0202H69.4806V8.68018Z" fill="#17A049"/>
<path d="M73.8205 8.68018H69.4805V13.0202H73.8205V8.68018Z" fill="#17A049"/>
<path d="M78.1603 8.68018H73.8203V13.0202H78.1603V8.68018Z" fill="#17A049"/>
<path d="M82.5002 8.68018H78.1602V13.0202H82.5002V8.68018Z" fill="#17A049"/>
<path d="M86.8498 8.68018H82.5098V13.0202H86.8498V8.68018Z" fill="#17A049"/>
<path d="M91.1896 8.68018H86.8496V13.0202H91.1896V8.68018Z" fill="#17A049"/>
<path d="M156.32 8.68018H151.98V13.0202H156.32V8.68018Z" fill="#17A049"/>
<path d="M160.67 8.68018H156.33V13.0202H160.67V8.68018Z" fill="#D4E169"/>
<path d="M165.01 8.68018H160.67V13.0202H165.01V8.68018Z" fill="#24150E"/>
<path d="M4.34 13.0298H0V17.3698H4.34V13.0298Z" fill="#24150E"/>
<path d="M8.67984 13.0298H4.33984V17.3698H8.67984V13.0298Z" fill="#116C32"/>
<path d="M13.0197 13.0298H8.67969V17.3698H13.0197V13.0298Z" fill="#17A049"/>
<path d="M160.67 13.0298H156.33V17.3698H160.67V13.0298Z" fill="#17A049"/>
<path d="M165.01 13.0298H160.67V17.3698H165.01V13.0298Z" fill="#D4E169"/>
<path d="M169.35 13.0298H165.01V17.3698H169.35V13.0298Z" fill="#24150E"/>
<path d="M4.34 17.3701H0V21.7101H4.34V17.3701Z" fill="#24150E"/>
<path d="M8.67984 17.3701H4.33984V21.7101H8.67984V17.3701Z" fill="#116C32"/>
<path d="M13.0197 17.3701H8.67969V21.7101H13.0197V17.3701Z" fill="#17A049"/>
<path d="M160.67 17.3701H156.33V21.7101H160.67V17.3701Z" fill="#17A049"/>
<path d="M165.01 17.3701H160.67V21.7101H165.01V17.3701Z" fill="#D4E169"/>
<path d="M169.35 17.3701H165.01V21.7101H169.35V17.3701Z" fill="#24150E"/>
<path d="M4.34 21.71H0V26.05H4.34V21.71Z" fill="#24150E"/>
<path d="M8.67984 21.71H4.33984V26.05H8.67984V21.71Z" fill="#116C32"/>
<path d="M13.0197 21.71H8.67969V26.05H13.0197V21.71Z" fill="#17A049"/>
<path d="M160.67 21.71H156.33V26.05H160.67V21.71Z" fill="#17A049"/>
<path d="M165.01 21.71H160.67V26.05H165.01V21.71Z" fill="#D4E169"/>
<path d="M169.35 21.71H165.01V26.05H169.35V21.71Z" fill="#24150E"/>
<path d="M4.34 26.0498H0V30.3898H4.34V26.0498Z" fill="#24150E"/>
<path d="M8.67984 26.0498H4.33984V30.3898H8.67984V26.0498Z" fill="#116C32"/>
<path d="M13.0197 26.0498H8.67969V30.3898H13.0197V26.0498Z" fill="#17A049"/>
<path d="M160.67 26.0498H156.33V30.3898H160.67V26.0498Z" fill="#17A049"/>
<path d="M165.01 26.0498H160.67V30.3898H165.01V26.0498Z" fill="#D4E169"/>
<path d="M169.35 26.0498H165.01V30.3898H169.35V26.0498Z" fill="#24150E"/>
<path d="M4.34 30.3999H0V34.7399H4.34V30.3999Z" fill="#24150E"/>
<path d="M8.67984 30.3999H4.33984V34.7399H8.67984V30.3999Z" fill="#116C32"/>
<path d="M13.0197 30.3999H8.67969V34.7399H13.0197V30.3999Z" fill="#17A049"/>
<path d="M160.67 30.3999H156.33V34.7399H160.67V30.3999Z" fill="#17A049"/>
<path d="M165.01 30.3999H160.67V34.7399H165.01V30.3999Z" fill="#D4E169"/>
<path d="M169.35 30.3999H165.01V34.7399H169.35V30.3999Z" fill="#24150E"/>
<path d="M4.34 34.7402H0V39.0802H4.34V34.7402Z" fill="#24150E"/>
<path d="M8.67984 34.7402H4.33984V39.0802H8.67984V34.7402Z" fill="#116C32"/>
<path d="M13.0197 34.7402H8.67969V39.0802H13.0197V34.7402Z" fill="#17A049"/>
<path d="M160.67 34.7402H156.33V39.0802H160.67V34.7402Z" fill="#17A049"/>
<path d="M165.01 34.7402H160.67V39.0802H165.01V34.7402Z" fill="#D4E169"/>
<path d="M169.35 34.7402H165.01V39.0802H169.35V34.7402Z" fill="#24150E"/>
<path d="M4.34 39.0801H0V43.4201H4.34V39.0801Z" fill="#24150E"/>
<path d="M8.67984 39.0801H4.33984V43.4201H8.67984V39.0801Z" fill="#116C32"/>
<path d="M13.0197 39.0801H8.67969V43.4201H13.0197V39.0801Z" fill="#17A049"/>
<path d="M160.67 39.0801H156.33V43.4201H160.67V39.0801Z" fill="#17A049"/>
<path d="M165.01 39.0801H160.67V43.4201H165.01V39.0801Z" fill="#D4E169"/>
<path d="M169.35 39.0801H165.01V43.4201H169.35V39.0801Z" fill="#24150E"/>
<path d="M8.67984 43.4199H4.33984V47.7599H8.67984V43.4199Z" fill="#24150E"/>
<path d="M13.0197 43.4199H8.67969V47.7599H13.0197V43.4199Z" fill="#116C32"/>
<path d="M17.3693 43.4199H13.0293V47.7599H17.3693V43.4199Z" fill="#17A049"/>
<path d="M21.7091 43.4199H17.3691V47.7599H21.7091V43.4199Z" fill="#17A049"/>
<path d="M26.0509 43.4199H21.7109V47.7599H26.0509V43.4199Z" fill="#17A049"/>
<path d="M30.3908 43.4199H26.0508V47.7599H30.3908V43.4199Z" fill="#17A049"/>
<path d="M34.7404 43.4199H30.4004V47.7599H34.7404V43.4199Z" fill="#17A049"/>
<path d="M39.0802 43.4199H34.7402V47.7599H39.0802V43.4199Z" fill="#17A049"/>
<path d="M43.4201 43.4199H39.0801V47.7599H43.4201V43.4199Z" fill="#17A049"/>
<path d="M47.7599 43.4199H43.4199V47.7599H47.7599V43.4199Z" fill="#17A049"/>
<path d="M52.1095 43.4199H47.7695V47.7599H52.1095V43.4199Z" fill="#17A049"/>
<path d="M56.4494 43.4199H52.1094V47.7599H56.4494V43.4199Z" fill="#17A049"/>
<path d="M60.7892 43.4199H56.4492V47.7599H60.7892V43.4199Z" fill="#17A049"/>
<path d="M65.1291 43.4199H60.7891V47.7599H65.1291V43.4199Z" fill="#17A049"/>
<path d="M69.4806 43.4199H65.1406V47.7599H69.4806V43.4199Z" fill="#17A049"/>
<path d="M73.8205 43.4199H69.4805V47.7599H73.8205V43.4199Z" fill="#17A049"/>
<path d="M78.1603 43.4199H73.8203V47.7599H78.1603V43.4199Z" fill="#17A049"/>
<path d="M82.5002 43.4199H78.1602V47.7599H82.5002V43.4199Z" fill="#17A049"/>
<path d="M86.8498 43.4199H82.5098V47.7599H86.8498V43.4199Z" fill="#17A049"/>
<path d="M91.1896 43.4199H86.8496V47.7599H91.1896V43.4199Z" fill="#17A049"/>
<path d="M156.32 43.4199H151.98V47.7599H156.32V43.4199Z" fill="#17A049"/>
<path d="M160.67 43.4199H156.33V47.7599H160.67V43.4199Z" fill="#17A049"/>
<path d="M165.01 43.4199H160.67V47.7599H165.01V43.4199Z" fill="#24150E"/>
<path d="M13.0197 47.77H8.67969V52.11H13.0197V47.77Z" fill="#24150E"/>
<path d="M17.3693 47.77H13.0293V52.11H17.3693V47.77Z" fill="#116C32"/>
<path d="M21.7091 47.77H17.3691V52.11H21.7091V47.77Z" fill="#116C32"/>
<path d="M26.0509 47.77H21.7109V52.11H26.0509V47.77Z" fill="#116C32"/>
<path d="M30.3908 47.77H26.0508V52.11H30.3908V47.77Z" fill="#116C32"/>
<path d="M34.7404 47.77H30.4004V52.11H34.7404V47.77Z" fill="#116C32"/>
<path d="M39.0802 47.77H34.7402V52.11H39.0802V47.77Z" fill="#116C32"/>
<path d="M43.4201 47.77H39.0801V52.11H43.4201V47.77Z" fill="#116C32"/>
<path d="M47.7599 47.77H43.4199V52.11H47.7599V47.77Z" fill="#116C32"/>
<path d="M52.1095 47.77H47.7695V52.11H52.1095V47.77Z" fill="#116C32"/>
<path d="M56.4494 47.77H52.1094V52.11H56.4494V47.77Z" fill="#116C32"/>
<path d="M60.7892 47.77H56.4492V52.11H60.7892V47.77Z" fill="#116C32"/>
<path d="M65.1291 47.77H60.7891V52.11H65.1291V47.77Z" fill="#116C32"/>
<path d="M69.4806 47.77H65.1406V52.11H69.4806V47.77Z" fill="#116C32"/>
<path d="M73.8205 47.77H69.4805V52.11H73.8205V47.77Z" fill="#116C32"/>
<path d="M78.1603 47.77H73.8203V52.11H78.1603V47.77Z" fill="#116C32"/>
<path d="M82.5002 47.77H78.1602V52.11H82.5002V47.77Z" fill="#116C32"/>
<path d="M86.8498 47.77H82.5098V52.11H86.8498V47.77Z" fill="#116C32"/>
<path d="M91.1896 47.77H86.8496V52.11H91.1896V47.77Z" fill="#116C32"/>
<path d="M156.32 47.77H151.98V52.11H156.32V47.77Z" fill="#116C32"/>
<path d="M160.67 47.77H156.33V52.11H160.67V47.77Z" fill="#24150E"/>
<path d="M17.3693 52.1099H13.0293V56.4499H17.3693V52.1099Z" fill="#24150E"/>
<path d="M21.7091 52.1099H17.3691V56.4499H21.7091V52.1099Z" fill="#24150E"/>
<path d="M26.0509 52.1099H21.7109V56.4499H26.0509V52.1099Z" fill="#24150E"/>
<path d="M30.3908 52.1099H26.0508V56.4499H30.3908V52.1099Z" fill="#24150E"/>
<path d="M34.7404 52.1099H30.4004V56.4499H34.7404V52.1099Z" fill="#24150E"/>
<path d="M39.0802 52.1099H34.7402V56.4499H39.0802V52.1099Z" fill="#24150E"/>
<path d="M43.4201 52.1099H39.0801V56.4499H43.4201V52.1099Z" fill="#24150E"/>
<path d="M47.7599 52.1099H43.4199V56.4499H47.7599V52.1099Z" fill="#24150E"/>
<path d="M52.1095 52.1099H47.7695V56.4499H52.1095V52.1099Z" fill="#24150E"/>
<path d="M56.4494 52.1099H52.1094V56.4499H56.4494V52.1099Z" fill="#24150E"/>
<path d="M60.7892 52.1099H56.4492V56.4499H60.7892V52.1099Z" fill="#24150E"/>
<path d="M65.1291 52.1099H60.7891V56.4499H65.1291V52.1099Z" fill="#24150E"/>
<path d="M69.4806 52.1099H65.1406V56.4499H69.4806V52.1099Z" fill="#24150E"/>
<path d="M73.8205 52.1099H69.4805V56.4499H73.8205V52.1099Z" fill="#24150E"/>
<path d="M78.1603 52.1099H73.8203V56.4499H78.1603V52.1099Z" fill="#24150E"/>
<path d="M82.5002 52.1099H78.1602V56.4499H82.5002V52.1099Z" fill="#24150E"/>
<path d="M86.8498 52.1099H82.5098V56.4499H86.8498V52.1099Z" fill="#24150E"/>
<path d="M91.1896 52.1099H86.8496V56.4499H91.1896V52.1099Z" fill="#24150E"/>
<path d="M95.5294 0H91.1895V4.34H95.5294V0Z" fill="#24150E"/>
<path d="M99.8693 0H95.5293V4.34H99.8693V0Z" fill="#24150E"/>
<path d="M104.221 0H99.8809V4.34H104.221V0Z" fill="#24150E"/>
<path d="M108.561 0H104.221V4.34H108.561V0Z" fill="#24150E"/>
<path d="M95.5294 4.33984H91.1895V8.67984H95.5294V4.33984Z" fill="#D4E169"/>
<path d="M99.8693 4.33984H95.5293V8.67984H99.8693V4.33984Z" fill="#D4E169"/>
<path d="M104.221 4.33984H99.8809V8.67984H104.221V4.33984Z" fill="#D4E169"/>
<path d="M108.561 4.33984H104.221V8.67984H108.561V4.33984Z" fill="#D4E169"/>
<path d="M95.5294 8.68018H91.1895V13.0202H95.5294V8.68018Z" fill="#17A049"/>
<path d="M99.8693 8.68018H95.5293V13.0202H99.8693V8.68018Z" fill="#17A049"/>
<path d="M104.221 8.68018H99.8809V13.0202H104.221V8.68018Z" fill="#17A049"/>
<path d="M108.561 8.68018H104.221V13.0202H108.561V8.68018Z" fill="#17A049"/>
<path d="M95.5294 43.4199H91.1895V47.7599H95.5294V43.4199Z" fill="#17A049"/>
<path d="M99.8693 43.4199H95.5293V47.7599H99.8693V43.4199Z" fill="#17A049"/>
<path d="M104.221 43.4199H99.8809V47.7599H104.221V43.4199Z" fill="#17A049"/>
<path d="M108.561 43.4199H104.221V47.7599H108.561V43.4199Z" fill="#17A049"/>
<path d="M95.5294 47.77H91.1895V52.11H95.5294V47.77Z" fill="#116C32"/>
<path d="M99.8693 47.77H95.5293V52.11H99.8693V47.77Z" fill="#116C32"/>
<path d="M104.221 47.77H99.8809V52.11H104.221V47.77Z" fill="#116C32"/>
<path d="M108.561 47.77H104.221V52.11H108.561V47.77Z" fill="#116C32"/>
<path d="M95.5294 52.1099H91.1895V56.4499H95.5294V52.1099Z" fill="#24150E"/>
<path d="M99.8693 52.1099H95.5293V56.4499H99.8693V52.1099Z" fill="#24150E"/>
<path d="M104.221 52.1099H99.8809V56.4499H104.221V52.1099Z" fill="#24150E"/>
<path d="M108.561 52.1099H104.221V56.4499H108.561V52.1099Z" fill="#24150E"/>
<path d="M112.901 0H108.561V4.34H112.901V0Z" fill="#24150E"/>
<path d="M117.24 0H112.9V4.34H117.24V0Z" fill="#24150E"/>
<path d="M121.58 0H117.24V4.34H121.58V0Z" fill="#24150E"/>
<path d="M125.93 0H121.59V4.34H125.93V0Z" fill="#24150E"/>
<path d="M112.901 4.33984H108.561V8.67984H112.901V4.33984Z" fill="#D4E169"/>
<path d="M117.24 4.33984H112.9V8.67984H117.24V4.33984Z" fill="#D4E169"/>
<path d="M121.58 4.33984H117.24V8.67984H121.58V4.33984Z" fill="#D4E169"/>
<path d="M125.93 4.33984H121.59V8.67984H125.93V4.33984Z" fill="#D4E169"/>
<path d="M112.901 8.68018H108.561V13.0202H112.901V8.68018Z" fill="#17A049"/>
<path d="M117.24 8.68018H112.9V13.0202H117.24V8.68018Z" fill="#17A049"/>
<path d="M121.58 8.68018H117.24V13.0202H121.58V8.68018Z" fill="#17A049"/>
<path d="M125.93 8.68018H121.59V13.0202H125.93V8.68018Z" fill="#17A049"/>
<path d="M112.901 43.4199H108.561V47.7599H112.901V43.4199Z" fill="#17A049"/>
<path d="M117.24 43.4199H112.9V47.7599H117.24V43.4199Z" fill="#17A049"/>
<path d="M121.58 43.4199H117.24V47.7599H121.58V43.4199Z" fill="#17A049"/>
<path d="M125.93 43.4199H121.59V47.7599H125.93V43.4199Z" fill="#17A049"/>
<path d="M112.901 47.77H108.561V52.11H112.901V47.77Z" fill="#116C32"/>
<path d="M117.24 47.77H112.9V52.11H117.24V47.77Z" fill="#116C32"/>
<path d="M121.58 47.77H117.24V52.11H121.58V47.77Z" fill="#116C32"/>
<path d="M125.93 47.77H121.59V52.11H125.93V47.77Z" fill="#116C32"/>
<path d="M112.901 52.1099H108.561V56.4499H112.901V52.1099Z" fill="#24150E"/>
<path d="M117.24 52.1099H112.9V56.4499H117.24V52.1099Z" fill="#24150E"/>
<path d="M121.58 52.1099H117.24V56.4499H121.58V52.1099Z" fill="#24150E"/>
<path d="M125.93 52.1099H121.59V56.4499H125.93V52.1099Z" fill="#24150E"/>
<path d="M130.27 0H125.93V4.34H130.27V0Z" fill="#24150E"/>
<path d="M134.61 0H130.27V4.34H134.61V0Z" fill="#24150E"/>
<path d="M138.949 0H134.609V4.34H138.949V0Z" fill="#24150E"/>
<path d="M143.301 0H138.961V4.34H143.301V0Z" fill="#24150E"/>
<path d="M130.27 4.33984H125.93V8.67984H130.27V4.33984Z" fill="#D4E169"/>
<path d="M134.61 4.33984H130.27V8.67984H134.61V4.33984Z" fill="#D4E169"/>
<path d="M138.949 4.33984H134.609V8.67984H138.949V4.33984Z" fill="#D4E169"/>
<path d="M143.301 4.33984H138.961V8.67984H143.301V4.33984Z" fill="#D4E169"/>
<path d="M130.27 8.68018H125.93V13.0202H130.27V8.68018Z" fill="#17A049"/>
<path d="M134.61 8.68018H130.27V13.0202H134.61V8.68018Z" fill="#17A049"/>
<path d="M138.949 8.68018H134.609V13.0202H138.949V8.68018Z" fill="#17A049"/>
<path d="M143.301 8.68018H138.961V13.0202H143.301V8.68018Z" fill="#17A049"/>
<path d="M130.27 43.4199H125.93V47.7599H130.27V43.4199Z" fill="#17A049"/>
<path d="M134.61 43.4199H130.27V47.7599H134.61V43.4199Z" fill="#17A049"/>
<path d="M138.949 43.4199H134.609V47.7599H138.949V43.4199Z" fill="#17A049"/>
<path d="M143.301 43.4199H138.961V47.7599H143.301V43.4199Z" fill="#17A049"/>
<path d="M130.27 47.77H125.93V52.11H130.27V47.77Z" fill="#116C32"/>
<path d="M134.61 47.77H130.27V52.11H134.61V47.77Z" fill="#116C32"/>
<path d="M138.949 47.77H134.609V52.11H138.949V47.77Z" fill="#116C32"/>
<path d="M143.301 47.77H138.961V52.11H143.301V47.77Z" fill="#116C32"/>
<path d="M130.27 52.1099H125.93V56.4499H130.27V52.1099Z" fill="#24150E"/>
<path d="M134.61 52.1099H130.27V56.4499H134.61V52.1099Z" fill="#24150E"/>
<path d="M138.949 52.1099H134.609V56.4499H138.949V52.1099Z" fill="#24150E"/>
<path d="M143.301 52.1099H138.961V56.4499H143.301V52.1099Z" fill="#24150E"/>
<path d="M147.641 0H143.301V4.34H147.641V0Z" fill="#24150E"/>
<path d="M151.981 0H147.641V4.34H151.981V0Z" fill="#24150E"/>
<path d="M147.641 4.33984H143.301V8.67984H147.641V4.33984Z" fill="#D4E169"/>
<path d="M151.981 4.33984H147.641V8.67984H151.981V4.33984Z" fill="#D4E169"/>
<path d="M147.641 8.68018H143.301V13.0202H147.641V8.68018Z" fill="#17A049"/>
<path d="M151.981 8.68018H147.641V13.0202H151.981V8.68018Z" fill="#17A049"/>
<path d="M147.641 43.4199H143.301V47.7599H147.641V43.4199Z" fill="#17A049"/>
<path d="M151.981 43.4199H147.641V47.7599H151.981V43.4199Z" fill="#17A049"/>
<path d="M147.641 47.77H143.301V52.11H147.641V47.77Z" fill="#116C32"/>
<path d="M151.981 47.77H147.641V52.11H151.981V47.77Z" fill="#116C32"/>
<path d="M147.641 52.1099H143.301V56.4499H147.641V52.1099Z" fill="#24150E"/>
<path d="M151.981 52.1099H147.641V56.4499H151.981V52.1099Z" fill="#24150E"/>
<path d="M156.32 52.1099H151.98V56.4499H156.32V52.1099Z" fill="#24150E"/>
<path d="M27.8105 21.5298H24.3105V17.0698H34.8105V21.5298H31.3105V39.3798H27.8105V21.5298Z" fill="#24150E"/>
<path d="M37.8711 17.0701H48.3711V19.3001H50.1211V28.2201H48.3711V30.4501H50.1211V39.3701H46.6211V32.6801H41.3711V39.3701H37.8711V17.0601V17.0701ZM46.6211 28.2301V21.5401H41.3711V28.2301H46.6211Z" fill="#24150E"/>
<path d="M58.4297 32.6901H56.6797V30.4601H54.9297V28.2301H53.1797V17.0801H56.6797V26.0001H58.4297V28.2301H61.9297V26.0001H63.6797V17.0801H67.1797V28.2301H65.4297V30.4601H63.6797V32.6901H61.9297V39.3801H58.4297V32.6901Z" fill="#24150E"/>
<path d="M78.5508 23.7598H80.3008V21.5298H82.0508V19.2998H83.8008V17.0698H85.5508V19.2998H87.3008V21.5298H89.0508V23.7598H90.8008V39.3798H87.3008V34.9198H82.0508V39.3798H78.5508V23.7598ZM82.0508 30.4598H87.3008V25.9998H85.5508V23.7698H83.8008V25.9998H82.0508V30.4598Z" fill="#24150E"/>
<path d="M99.1113 25.9998H106.111V37.1498H104.361V39.3798H95.6113V37.1498H93.8613V19.2998H95.6113V17.0698H104.361V19.2998H106.111V23.7598H102.611V21.5298H99.1113V23.7598H97.3613V32.6798H99.1113V34.9098H102.611V30.4498H99.1113V25.9898V25.9998Z" fill="#24150E"/>
<path d="M109.17 23.7598H110.92V21.5298H112.67V19.2998H114.42V17.0698H116.17V19.2998H117.92V21.5298H119.67V23.7598H121.42V39.3798H117.92V34.9198H112.67V39.3798H109.17V23.7598ZM112.67 30.4598H117.92V25.9998H116.17V23.7698H114.42V25.9998H112.67V30.4598Z" fill="#24150E"/>
<path d="M124.48 17.0698H127.98V39.3798H124.48V17.0698Z" fill="#24150E"/>
<path d="M138.041 32.6898H136.291V28.2298H134.541V39.3798H131.041V17.0698H136.291V21.5298H138.041V25.9898H139.791V30.4498H141.541V17.0698H145.041V39.3798H139.791V37.1498H138.041V32.6898Z" fill="#24150E"/>
</g>
<defs>
<clipPath id="clip0_782_2854">
<rect width="169.35" height="56.45" fill="white"/>
</clipPath>
</defs>
</svg>
